<svg xmlns="http://www.w3.org/2000/svg" width="32" viewBox="0 0 32 32" class="icon-social"><g fill="#295bbe" fill-rule="evenodd"><path d="M16 0c8.837 0 16 7.163 16 16s-7.163 16-16 16S0 24.837 0 16 7.163 0 16 0M8.386 12.667h-1.72v6.878h1.72zm3.008 0H9.245v6.877h1.719v-3.008l.86 3.008h.86l.858-3.008v3.009h1.72v-6.878h-2.149l-.86 3.439zm7.306 0H16.12v6.878H18.7a1.72 1.72 0 0 0 1.718-1.72v-3.439c0-.949-.768-1.718-1.718-1.718m4.297 0h-1.718v6.877h1.718v-.388c.287.208.711.388 1.29.388 1.031 0 1.289-.574 1.289-.86v-3.437c0-.288-.258-.86-1.29-.86-.576 0-1.002.179-1.289.388z"/><path d="M18 14h.43a.43.43 0 0 1 .43.43v3.438a.43.43 0 0 1-.43.43H18z"/><path d="M24.017 17.868v-1.72a.43.43 0 0 0-.86 0v1.72a.43.43 0 0 0 .86 0"/></g></svg>