<svg xmlns="http://www.w3.org/2000/svg" width="32" viewBox="0 0 32 32"><g fill="none" fill-rule="evenodd">
<rect width="32" height="32" fill="#295bbe" rx="16" class="icon-themed" /><path fill="#fff" d="M23.23 11.172a.19.19 0 0 1 .276 0l1.14 1.14c.15.148.352.23.562.23A.79.79 0 0 0 26 11.75V7.792A.79.79 0 0 0 25.208 7H21.25a.79.79 0 0 0-.728.49.79.79 0 0 0 .166.864l1.14 1.14a.19.19 0 0 1 0 .277l-5.186 5.185a.2.2 0 0 1-.284 0l-5.186-5.185a.19.19 0 0 1 0-.277l1.14-1.14a.79.79 0 0 0 .166-.863A.79.79 0 0 0 11.75 7H7.792A.79.79 0 0 0 7 7.792v3.958c.002.32.195.607.49.728q.145.06.302.064a.8.8 0 0 0 .562-.23l1.14-1.14a.19.19 0 0 1 .277 0l5.193 5.186a.214.214 0 0 1 0 .284l-5.193 5.186a.19.19 0 0 1-.277 0l-1.14-1.14a.79.79 0 0 0-.863-.166.79.79 0 0 0-.491.728v3.958c0 .438.354.792.792.792h3.958a.79.79 0 0 0 .728-.49.79.79 0 0 0-.166-.864l-1.14-1.14a.19.19 0 0 1 0-.277l5.186-5.193a.214.214 0 0 1 .284 0l5.186 5.193a.19.19 0 0 1 0 .277l-1.14 1.14a.79.79 0 0 0-.166.863c.121.296.408.49.728.491h3.958a.79.79 0 0 0 .792-.792V21.25a.79.79 0 0 0-.49-.728.79.79 0 0 0-.864.166l-1.14 1.14a.19.19 0 0 1-.277 0l-5.193-5.186a.214.214 0 0 1 0-.284z"/></g></svg>