<svg xmlns="http://www.w3.org/2000/svg" width="32" viewBox="0 0 32 32"><g fill="none" fill-rule="evenodd"><rect width="32" height="32" fill="#295bbe" rx="16" class="icon-themed" /><path fill="#fff" d="M24.625 11.007c.5-.501.5-1.313 0-1.814L22.81 7.379a1.276 1.276 0 0 0-1.815 0l-5.34 5.34a.23.23 0 0 1-.31 0l-5.34-5.34a1.276 1.276 0 0 0-1.815 0L6.375 9.193c-.5.501-.5 1.313 0 1.814l5.342 5.339a.214.214 0 0 1 0 .308l-5.342 5.34c-.5.5-.5 1.312 0 1.813l1.815 1.814a1.276 1.276 0 0 0 1.815 0l5.34-5.34a.23.23 0 0 1 .31 0l5.34 5.34c.24.243.567.379.908.377.34.004.67-.132.907-.377l1.815-1.814c.5-.501.5-1.313 0-1.814l-5.342-5.339a.214.214 0 0 1 0-.308z"/></g></svg>