<svg xmlns="http://www.w3.org/2000/svg" width="32" viewBox="0 0 32 32" class="icon-social"><path fill="#295bbe" fill-rule="evenodd" d="M16 0c8.837 0 16 7.163 16 16s-7.163 16-16 16S0 24.837 0 16 7.163 0 16 0m-5.277 12.194c-.099 0-.201.002-.298.004a13 13 0 0 1-.596 0q-.151-.003-.303-.004a2.2 2.2 0 0 0-.661.085 1.16 1.16 0 0 0-.667.527c-.152.262-.198.565-.198.867v9.544c0 .305.046.613.205.875.175.29.434.441.69.512a2.3 2.3 0 0 0 .653.062l.173-.006.078-.003a8 8 0 0 1 .55-.004l.103.004c.076.003.154.007.25.009.183.003.422.001.65-.063.257-.071.514-.225.686-.514.156-.263.2-.57.2-.872v-9.544c0-.3-.044-.602-.193-.863a1.15 1.15 0 0 0-.662-.53 2.2 2.2 0 0 0-.66-.086m9.272-.158a3.82 3.82 0 0 0-2.503.69c-.158-.25-.43-.51-.869-.51-.102 0-.25-.005-.429-.011l-.148-.005-.327-.008a13 13 0 0 0-.537-.003c-.153.003-.332.01-.474.039a1.22 1.22 0 0 0-.775.483c-.199.28-.26.62-.26.962v9.544c0 .3.043.606.197.868.17.29.426.446.683.518.229.064.468.066.652.063.094-.002.173-.005.249-.009l.104-.003a7 7 0 0 1 .56.003c.077.003.156.007.251.009.185.003.425.001.654-.062a1.13 1.13 0 0 0 .687-.515c.157-.262.202-.57.202-.872v-5.09l-.003-.062a1.21 1.21 0 0 1 .728-1.225c.157-.066.326-.098.495-.094h.055a1.18 1.18 0 0 1 1.187.786c.057.16.08.332.065.502l-.002.055v5.09c0 .3.043.606.197.868.17.29.426.446.683.518.228.064.468.066.651.062.095-.002.174-.005.25-.008l.104-.004c.07-.002.143-.004.228-.004.127 0 .226.004.332.008.076.003.154.006.249.008.184.004.423.002.652-.062.257-.072.513-.228.683-.518.153-.262.197-.567.197-.868v-6.502a4.47 4.47 0 0 0-1.324-3.365 4.45 4.45 0 0 0-3.344-1.276m-9.856-5.37h-.028a2.15 2.15 0 0 0-1.462.616 2.17 2.17 0 0 0-.647 1.451v.038a2.177 2.177 0 0 0 2.1 2.154h.037a2.14 2.14 0 0 0 1.492-.653c.393-.405.61-.95.606-1.515v-.019a2.15 2.15 0 0 0-.64-1.453 2.14 2.14 0 0 0-1.458-.618"/></svg>