<svg xmlns="http://www.w3.org/2000/svg" width="32" viewBox="0 0 32 32" class="icon-social"><g fill="#295bbe" fill-rule="evenodd"><path d="M16 0c8.837 0 16 7.163 16 16s-7.163 16-16 16S0 24.837 0 16 7.163 0 16 0m.06 4.463c-2.675 0-5.145.988-6.927 3.066-1.768 2.066-2.753 5.074-2.753 8.942 0 3.956 1.372 6.7 3.454 8.433 2.04 1.7 4.618 2.304 6.86 2.304 4.535 0 8.228-2.79 8.406-6.802.09-2.014-.8-3.688-2.28-4.816a7.2 7.2 0 0 0-1.304-.788q-.007-.129-.017-.258c-.159-2.107-1.06-3.433-2.196-4.188a5.1 5.1 0 0 0-2.766-.822c-1.58 0-2.96.656-4.073 1.934a1.209 1.209 0 0 0 1.823 1.587c.69-.793 1.423-1.104 2.252-1.104.294 0 .9.07 1.427.419.382.254.826.72 1.029 1.68a11.4 11.4 0 0 0-1.735-.129c-2.058 0-3.505.523-4.402 1.485-.896.957-1.025 2.115-.98 2.897a3.65 3.65 0 0 0 1.368 2.638c.863.696 2.044 1.033 3.449.93 1.525-.112 2.855-.889 3.73-2.216.411-.624.711-1.354.895-2.169l.033.025c.9.688 1.385 1.626 1.333 2.788-.104 2.341-2.335 4.492-5.991 4.492-1.852 0-3.826-.506-5.315-1.745-1.448-1.206-2.582-3.225-2.582-6.575 0-3.477.885-5.867 2.171-7.368C12.24 7.62 14.005 6.88 16.06 6.88c2.179 0 3.906.522 5.142 1.41 1.218.872 2.044 2.158 2.35 3.875a1.209 1.209 0 0 0 2.38-.424c-.41-2.298-1.561-4.154-3.321-5.416-1.743-1.25-4-1.862-6.55-1.862"/><path d="M16.973 16.667c.64 0 1.237.062 1.782.176-.114.771-.346 1.37-.636 1.81-.468.71-1.123 1.079-1.89 1.136-.92.067-1.46-.163-1.755-.401a1.24 1.24 0 0 1-.47-.898c-.025-.42.06-.814.333-1.105.27-.29.948-.718 2.636-.718"/></g></svg>