<svg xmlns="http://www.w3.org/2000/svg" width="32" viewBox="0 0 32 32" class="icon-social"><path fill="#295bbe" fill-rule="evenodd" d="M16 0c8.837 0 16 7.163 16 16 0 8.34-6.38 15.189-14.526 15.933l.005-.076v-10.33h1.846c.658 0 1.24-.579 1.24-1.233V18.77c0-.654-.582-1.233-1.24-1.233h-1.846v-1.898c0-1.434.64-1.6 1.352-1.62l.187-.001h1.074c.68.008 1.25-.56 1.241-1.233V11.26c0-.664-.546-1.205-1.206-1.231-.34-.014-.685-.015-1.027-.022-1.823-.036-3.598.014-4.958 1.48-1.207 1.3-1.269 2.93-1.233 4.575l.013.493q.015.494.017.982h-1.698c-.658 0-1.241.579-1.241 1.233v1.524c0 .654.583 1.233 1.241 1.233h1.698v10.18C5.567 30.28 0 23.79 0 16 0 7.163 7.163 0 16 0"/></svg>