<svg xmlns="http://www.w3.org/2000/svg" width="32" viewBox="0 0 32 32" class="icon-social"><path fill="#295bbe" fill-rule="evenodd" d="M16 0c8.837 0 16 7.163 16 16s-7.163 16-16 16S0 24.837 0 16 7.163 0 16 0m-4.6 19.63a1.429 1.429 0 1 0 .35 2.835c2.335-.288 3.86.003 6.1 1.026a1.429 1.429 0 0 0 1.187-2.599c-2.653-1.211-4.708-1.623-7.637-1.263m11.02-3.105c-4.43-2.14-7.617-3.091-12.133-2.194a1.429 1.429 0 1 0 .558 2.803c3.642-.724 6.158-.053 10.333 1.963a1.429 1.429 0 0 0 1.243-2.572M9.19 9.272a1.429 1.429 0 0 0 .537 2.806c5.129-.98 9.062-.45 13.942 2.148a1.429 1.429 0 0 0 1.343-2.523C19.55 8.797 14.954 8.171 9.19 9.272"/></svg>