<svg xmlns="http://www.w3.org/2000/svg" width="32" viewBox="0 0 32 32" class="icon-social"><path fill="#295bbe" fill-rule="evenodd" d="M16 0c8.837 0 16 7.163 16 16s-7.163 16-16 16S0 24.837 0 16 7.163 0 16 0m3.599 6h-3.593v14.148a2.96 2.96 0 0 1-1.84 2.751 3.04 3.04 0 0 1-3.287-.63 2.92 2.92 0 0 1-.655-3.23 3.01 3.01 0 0 1 3.388-1.76v-3.02a5 5 0 0 0-.6-.064c-2.428-.005-4.62 1.432-5.553 3.638a5.83 5.83 0 0 0 1.299 6.438 6.07 6.07 0 0 0 6.544 1.277c2.243-.917 3.703-3.073 3.698-5.463v-8.772a8.21 8.21 0 0 0 6 2.644v-3.245c-2.464.003-4.613-1.646-5.21-3.998z"/></svg>