<svg xmlns="http://www.w3.org/2000/svg" viewBox="0 0 228 164">

<g fill="none">

<path class="logo-colour-1" fill="#295bbe" d="M12.192 30.64q2.268 0 3.864 1.597t1.596 3.78v20.328q0 .672-.084 1.47a3.8 3.8 0 0 1-.462 1.47q-.378.672-1.134 1.176t-2.016.672q2.604.42 3.15 1.806t.546 2.73v26.124h-6.636V64.157H7.068v27.636H.432V30.64zM11.016 58.11V36.605H7.068v21.504zM4.128 34.253h7.308q1.428 0 1.974.63t.546 2.058v19.32q0 1.68-.84 3.066t-3.528 1.386h-5.46zm10.668 55.02V66.005a7 7 0 0 0-.672-3.024q-.672-1.428-2.604-1.848 1.932-.42 2.604-1.848t.672-3.024V36.94q0-1.932-.714-2.73t-2.646-.798H3.288v55.86h.84v-27.72h5.46q2.688 0 3.528 1.386t.84 3.066v23.268zm13.02 2.52v-18.9q-2.268-.252-3.822-1.764T22.44 67.18V30.64h6.636v36.288h4.2V30.64h6.636v36.54q0 2.436-1.554 3.948t-3.822 1.764v18.9zm3.78-2.52V70.54h1.848q1.932 0 2.73-.924t.798-2.856v-33.6h-.84v33.6q0 2.94-2.688 2.94h-4.62q-2.688 0-2.688-2.856V33.16h-.84v33.684q0 1.932.798 2.814t2.73.882h1.932v18.732zM44.7 36.1q0-2.268 1.596-3.864t3.864-1.596h6.3q2.268 0 3.864 1.596T61.92 36.1v55.692h-6.636V64.157h-3.948v27.636H44.7zm10.584.504h-3.948v21.504h3.948zm3.696 52.668v-52.5q0-1.932-.714-2.73t-2.646-.798h-4.704q-1.932 0-2.646.756t-.714 2.688v52.584h.84v-27.72h9.744v27.72zM48.396 36.689q0-1.428.504-2.016t1.932-.588h4.872q1.428 0 1.932.63t.504 2.058v23.94h-9.744zM72.84 30.64l6.216 30.744V30.64h6.552v61.152h-5.88l-6.216-31.584v31.584H66.96V30.64zm-2.184 58.632V36.94l11.256 52.332h.84V33.245h-.84v52.332L70.656 33.245h-.84v56.028zm35.028-58.632v27.468h1.344l3.948-27.468h6.552l-4.536 27.804q1.26.168 1.932.672t.966 1.176a4.1 4.1 0 0 1 .336 1.428q.042.756.042 1.428v28.644h-6.636V64.157h-3.948v27.636h-6.636V30.64zm-3.78 2.52v56.112h.84v-27.72h8.064q1.68 0 1.68 1.764v25.956h.84V63.317q0-2.604-2.52-2.604h-.756l4.452-27.636h-.924l-4.452 27.636h-6.384V33.16zm25.032-2.52 6.216 30.744V30.64h6.552v61.152h-5.88l-6.216-31.584v31.584h-6.552V30.64zm-2.184 58.632V36.94l11.256 52.332h.84V33.245h-.84v52.332l-11.256-52.332h-.84v56.028zM144.744 36.1q0-2.268 1.596-3.864t3.864-1.596h6.3q2.268 0 3.864 1.596t1.596 3.864v55.692h-6.636V64.157h-3.948v27.636h-6.636zm10.584.504h-3.948v21.504h3.948zm3.696 52.668v-52.5q0-1.932-.714-2.73t-2.646-.798h-4.704q-1.932 0-2.646.756t-.714 2.688v52.584h.84v-27.72h9.744v27.72zM148.44 36.689q0-1.428.504-2.016t1.932-.588h4.872q1.428 0 1.932.63t.504 2.058v23.94h-9.744zm35.952 49.392q0 2.688-1.512 4.2t-4.2 1.512h-5.88q-2.604 0-4.2-1.512t-1.596-4.2V36.353q0-2.52 1.596-4.116t4.2-1.596h5.88q2.688 0 4.2 1.596t1.512 4.116v14.112h-6.636v-13.86h-4.116v49.224h4.116V64.157h-1.596v-6.048h8.232zm-3.108-38.136V36.773q0-1.932-.714-2.73t-2.646-.798h-4.704q-1.932 0-2.646.756t-.714 2.688v49.14q0 1.932.714 2.688t2.646.756h4.704q1.932 0 2.646-.798t.714-2.73V60.713h-2.604v.84h1.764v24.192q0 1.428-.546 2.058t-1.974.63h-4.704q-1.428 0-1.974-.588t-.546-2.016v-49.14q0-1.428.546-2.016t1.974-.588h4.704q1.428 0 1.974.63t.546 2.058v11.172zm25.284 38.136q0 2.688-1.512 4.2t-4.2 1.512h-5.88q-2.604 0-4.2-1.512t-1.596-4.2V36.353q0-2.52 1.596-4.116t4.2-1.596h5.88q2.688 0 4.2 1.596t1.512 4.116v14.112h-6.636v-13.86h-4.116v49.224h4.116V64.157h-1.596v-6.048h8.232zm-3.108-38.136V36.773q0-1.932-.714-2.73t-2.646-.798h-4.704q-1.932 0-2.646.756t-.714 2.688v49.14q0 1.932.714 2.688t2.646.756h4.704q1.932 0 2.646-.798t.714-2.73V60.713h-2.604v.84h1.764v24.192q0 1.428-.546 2.058t-1.974.63h-4.704q-1.428 0-1.974-.588t-.546-2.016v-49.14q0-1.428.546-2.016t1.974-.588h4.704q1.428 0 1.974.63t.546 2.058v11.172zm17.892 24.024q0-.756-.168-1.26t-.588-1.176l-8.736-14.616q-.672-1.176-.798-2.016a12.5 12.5 0 0 1-.126-1.848V35.765q0-2.688 1.512-3.906t4.2-1.218h5.628q2.688 0 4.2 1.218t1.512 3.906v14.7h-6.636v-13.86h-3.78v13.86q0 .756.21 1.302t.546 1.134l8.232 13.776q.504.756.756 1.344t.42 1.176.21 1.344.042 1.848v14.28q0 2.688-1.512 3.906t-4.2 1.218h-5.628q-2.688 0-4.2-1.218t-1.512-3.906v-14.7h6.636v13.86h3.78zm3.78-24.024V36.94q0-1.932-.714-2.73t-2.646-.798h-4.62q-1.932 0-2.646.756t-.714 2.688v13.356q0 .924.126 1.89t.546 1.638l8.736 14.532q.672 1.092.924 1.974t.252 2.142v13.104q0 1.428-.546 2.058t-1.974.63h-4.62q-1.428 0-1.974-.63t-.546-2.058V74.489h-.84v11.004q0 1.932.714 2.73t2.646.798h4.62q1.932 0 2.646-.798t.714-2.73V72.389q0-1.428-.294-2.436t-1.05-2.184l-8.484-14.196a4.5 4.5 0 0 1-.588-1.512 9.4 9.4 0 0 1-.168-1.848V36.857q0-1.428.546-2.016t1.974-.588h4.62q1.428 0 1.974.63t.546 2.058v11.004z"/>

<path class="logo-colour-2" fill="#c9cacf" d="m79.091 159.146-4.907-30.575V164H67.5v-62h7.869l5.5 33.98L86.367 102h7.869v62h-6.685v-35.429l-4.907 30.575zm-7.868 2.3v-56.04h.761l8.123 44.712h1.523l8.038-44.797h.761v56.124h.846V104.47h-2.284l-8.038 44.796h-.17l-8.122-44.711h-2.284v56.89zM116.489 102v56.209q0 2.725-1.566 4.258-1.565 1.533-4.188 1.533h-5.669q-2.708 0-4.23-1.533t-1.523-4.258V102h6.684v55.953h3.808V102zm-2.792 2.555h-.846v53.058q0 1.447-.55 2.086t-1.989.639h-4.738q-1.439 0-1.988-.596-.55-.597-.55-2.044v-53.143h-.846v53.143q0 1.959.719 2.725.72.767 2.665.767h4.738q1.947 0 2.665-.81.72-.809.72-2.767zm17.937 39.346q0-.766-.17-1.277-.168-.511-.592-1.193l-8.8-14.818q-.675-1.193-.803-2.044a13 13 0 0 1-.127-1.874v-15.5q0-2.725 1.523-3.96t4.23-1.235h5.67q2.707 0 4.23 1.235 1.523 1.234 1.523 3.96V122.1h-6.684v-14.052h-3.808v14.052q0 .765.212 1.32.21.553.55 1.15l8.292 13.967q.507.766.761 1.362t.423 1.193.212 1.362.042 1.874v14.478q0 2.726-1.523 3.96-1.523 1.235-4.23 1.235h-5.67q-2.707 0-4.23-1.235t-1.523-3.96V143.9h6.684v14.052h3.808zm3.807-24.357v-11.157q0-1.958-.719-2.767-.72-.81-2.665-.81h-4.654q-1.945 0-2.665.767-.72.766-.72 2.725v13.541q0 .938.128 1.917.126.98.55 1.66l8.8 14.734q.675 1.107.93 2.001.254.894.254 2.172v13.286q0 1.447-.55 2.086t-1.989.639h-4.653q-1.439 0-1.988-.639-.55-.639-.55-2.086v-11.157h-.846v11.157q0 1.958.719 2.767.72.81 2.665.81h4.653q1.947 0 2.666-.81.72-.809.719-2.767v-13.286q0-1.448-.296-2.47-.297-1.022-1.058-2.214l-8.545-14.393a4.6 4.6 0 0 1-.593-1.533 9.6 9.6 0 0 1-.169-1.874v-13.54q0-1.448.55-2.045.55-.596 1.988-.596h4.654q1.438 0 1.988.639t.55 2.086v11.157zM143.225 102h6.769v62h-6.769zm3.808 2.555h-.846v56.89h.846zm25.467 53.654q0 2.725-1.523 4.258t-4.23 1.533h-5.67q-2.706 0-4.23-1.533-1.523-1.533-1.523-4.258V107.79q0-2.554 1.523-4.173 1.524-1.618 4.23-1.618h5.67q2.707 0 4.23 1.618t1.523 4.173V122.1h-6.684v-14.052h-3.808v49.906h3.808v-14.052h6.684zm-2.792-38.665v-11.327q0-1.958-.72-2.768-.719-.81-2.664-.809h-4.739q-1.945 0-2.665.767-.72.765-.719 2.725v49.821q0 1.96.72 2.726.719.765 2.664.766h4.739q1.945 0 2.665-.809.72-.81.719-2.768v-11.412h-.846v11.412q0 1.447-.55 2.087-.55.638-1.988.638h-4.739q-1.437 0-1.988-.596t-.55-2.044v-49.821q0-1.448.55-2.044t1.988-.596h4.739q1.437 0 1.988.638.55.64.55 2.087v11.327z"/>

<path class="logo-colour-2" fill="#c9cacf" d="M70.97 0q.765 0 1.304.548.54.548.539 1.298v6.98q0 .232-.029.506-.027.273-.155.519a1.14 1.14 0 0 1-.383.418q-.255.174-.68.231.878.144 1.063.62t.184.938V21h-2.24v-9.49H69.24V21H67V0zm-.397 9.433V2.048H69.24v7.385zM76.754 0v9.433h.454L78.54 0h2.211l-1.53 9.548q.424.058.651.23t.326.405q.1.23.114.49t.014.49V21h-2.24v-9.49h-1.333V21h-2.24V0zm9.074 19.356L84.183 9v12h-2.24V0h2.637l1.843 11.51L88.267 0h2.637v21h-2.24V9l-1.645 10.356zm12.987-5.164q0-.26-.057-.432a2 2 0 0 0-.198-.404l-2.95-5.02q-.225-.404-.269-.692a4.4 4.4 0 0 1-.042-.634V1.76q0-.924.51-1.342T97.227 0h1.9q.907 0 1.417.418.51.419.51 1.342v5.048h-2.24v-4.76H97.54v4.76q0 .26.07.447.072.188.185.39l2.779 4.73q.17.26.255.462.085.201.142.403t.07.462q.015.26.015.635v4.903q0 .924-.51 1.342T99.126 21h-1.9q-.908 0-1.418-.418-.51-.419-.51-1.342v-5.048h2.24v4.76h1.276zm7.344 4.76V2.048h-1.305v16.904zm2.212.086q0 .924-.525 1.443t-1.404.519h-1.9q-.878 0-1.403-.52-.525-.518-.525-1.442V1.962q0-.866.525-1.414T104.543 0h1.9q.878 0 1.403.548t.525 1.414zM115.828 0v19.038q0 .924-.525 1.443-.524.519-1.403.519H112q-.908 0-1.418-.52-.51-.518-.51-1.442V0h2.24v18.952h1.276V0zm3.686 0 2.098 10.558V0h2.212v21h-1.985l-2.098-10.846V21h-2.212V0zm9.584 2.048h-1.332v16.904h1.332zm2.24 17.106q0 .75-.538 1.298a1.73 1.73 0 0 1-1.276.548h-3.998V0h3.998q.736 0 1.276.548.538.548.538 1.327zM138.768 0v18.952h1.275V0h2.24v19.038q0 .924-.51 1.443t-1.418.519h-1.616q-.312 0-.624-.159a1 1 0 0 1-.453-.447 1 1 0 0 1-.454.447 1.4 1.4 0 0 1-.624.159h-1.616q-.908 0-1.418-.52-.51-.518-.51-1.442V0h2.24v18.952h1.276V0zm8.761 18.952V2.048h-1.304v16.904zm2.212.086q0 .924-.525 1.443t-1.403.519h-1.9q-.879 0-1.404-.52-.524-.518-.524-1.442V1.962q0-.866.524-1.414.525-.548 1.404-.548h1.9q.88 0 1.403.548.525.548.525 1.414zM155.412 0q.765 0 1.304.548.54.548.54 1.298v6.98q0 .232-.03.506-.027.273-.155.519a1.14 1.14 0 0 1-.383.418q-.255.174-.68.231.879.144 1.063.62t.184.938V21h-2.24v-9.49h-1.333V21h-2.24V0zm-.397 9.433V2.048h-1.333v7.385zM161.197 0v9.433h.453L162.983 0h2.212l-1.531 9.548q.424.058.652.23.226.173.326.405.1.23.113.49.014.26.014.49V21h-2.24v-9.49h-1.332V21h-2.24V0zm8.563 14.192q0-.26-.057-.432a2 2 0 0 0-.198-.404l-2.95-5.02q-.225-.404-.269-.692a4.4 4.4 0 0 1-.042-.634V1.76q0-.924.51-1.342T168.172 0h1.9q.907 0 1.418.418.51.419.51 1.342v5.048h-2.24v-4.76h-1.276v4.76q0 .26.07.447.072.188.185.39l2.779 4.73q.17.26.255.462.085.201.142.403t.07.462q.015.26.015.635v4.903q0 .924-.51 1.342t-1.418.418h-1.9q-.907 0-1.418-.418-.51-.419-.51-1.342v-5.048h2.24v4.76h1.276z"/>

<g fill="none" stroke="#295bbe" stroke-width="2" stroke-linecap="square">
<path d="M60.5 132.5H.5"/>
<path d="M60.5 135.5H.5"/>
<path d="M227.5 132.5h-58"/>
<path d="M227.5 135.5h-58"/>
</g>

</g>
</svg>