<svg xmlns="http://www.w3.org/2000/svg" viewBox="0 0 1140 175"><g fill="#0c1025" fill-rule="evenodd"><path d="M990 0h150v80H990z"/><path d="M825 0h150v80H825z"/><path d="M660 0h150v80H660z"/><path d="M495 0h150v80H495z"/><path d="M330 0h150v80H330z"/><path d="M165 0h150v80H165z"/><path d="M907 95h150v80H907z"/><path d="M742 95h150v80H742z"/><path d="M577 95h150v80H577z"/><path d="M412 95h150v80H412z"/><path d="M247 95h150v80H247z"/><path d="M82 95h150v80H82z"/><path d="M0 0h150v80H0z"/></g></svg>