<svg xmlns="http://www.w3.org/2000/svg" viewBox="0 0 967 241"><g fill="#fff"><path d="m49.011 47.231 6.382-27.746h6.098l6.382 27.746h-4.887l-1.414-6.421H55.15l-1.413 6.421zm6.786-10.38h5.088l-1.736-8.844q-.041-.242-.121-.687l-.182-.99a31 31 0 0 1-.182-1.09 58 58 0 0 0-.161-1.03h-.243a27 27 0 0 1-.222 1.293q-.142.726-.262 1.413-.122.687-.202 1.09zm14.257 10.38V19.485h6.744l3.191 15.59q.081.444.242 1.252.162.807.324 1.676.161.868.282 1.595h.243q.08-.485.222-1.232l.303-1.595q.161-.849.282-1.656l3.231-15.63h6.665V47.23h-4.524V30.147q0-.525.02-1.191.021-.667.06-1.313.042-.646.041-1.09h-.242q-.04.403-.162 1.01-.12.605-.242 1.272-.12.666-.283 1.272L82.736 47.23h-3.757l-3.675-17.124a39 39 0 0 1-.202-.99q-.12-.626-.242-1.312-.121-.687-.243-1.252h-.242q.04.525.04 1.17 0 .648.04 1.293.041.646.041 1.131v17.084zm26.05 0V19.485h14.701v4.038h-9.975v7.553h8.602v4.08h-8.602v8.037h10.137v4.038zm17.933 0V19.485h8.481q3.03 0 4.705 1.07 1.677 1.07 2.343 2.868t.666 4.018q0 2.706-.747 4.746t-2.363 3.009l4.2 12.035h-4.927l-3.554-10.46h-4.08v10.46zm4.725-14.499h3.07q2.019 0 2.847-1.272t.828-3.575q0-1.534-.344-2.504-.343-.969-1.191-1.413t-2.342-.445h-2.868zm14.944 14.5V19.484h4.725V47.23zm16.963.484q-3.272 0-5.19-1.555-1.92-1.554-2.747-4.745-.828-3.191-.828-8.078 0-7.392 2.202-10.865 2.2-3.473 7.209-3.473 2.706 0 4.483 1.13 1.778 1.132 2.706 3.575.93 2.445.929 6.361h-4.523q0-2.26-.364-3.836t-1.191-2.383q-.828-.808-2.282-.808-1.495 0-2.464.909-.968.908-1.454 2.827-.485 1.918-.485 4.988v3.312q0 3.028.465 4.927t1.393 2.787q.93.888 2.423.888 1.414 0 2.303-.767.888-.768 1.312-2.302t.424-3.878h4.403q0 3.878-1.03 6.301t-2.949 3.554-4.745 1.131m9.976-.485 6.381-27.746h6.099l6.381 27.746h-4.887l-1.414-6.421h-6.421l-1.414 6.421zm6.785-10.38h5.089l-1.737-8.844a51 51 0 0 0-.121-.687q-.08-.444-.182-.99a31 31 0 0 1-.182-1.09 58 58 0 0 0-.161-1.03h-.242a27 27 0 0 1-.223 1.293q-.14.726-.262 1.413-.12.687-.202 1.09zm13.813-6.502v-2.1q.606-.162 1.01-.687.403-.524.646-1.353a6.5 6.5 0 0 0 .242-1.837h-1.616v-4.887h3.716v4.28q0 2.303-.606 3.717-.606 1.413-1.514 2.06-.909.646-1.878.807m14.903 17.367q-1.696 0-3.13-.363a6 6 0 0 1-2.504-1.293q-1.071-.93-1.656-2.564-.585-1.636-.586-4.18v-.768h4.564v.808q0 1.616.323 2.564.324.95 1.03 1.353.707.405 1.878.404.647 0 1.151-.141.505-.142.909-.465.404-.322.666-.787.263-.465.404-1.11.142-.648.142-1.495 0-1.131-.465-1.919-.464-.787-1.232-1.332a11.5 11.5 0 0 0-1.696-.99q-.93-.444-1.959-.909-1.03-.465-1.959-1.07a8.3 8.3 0 0 1-1.696-1.474q-.767-.87-1.232-2.1-.465-1.233-.464-3.01 0-2.1.626-3.594t1.676-2.443a6.6 6.6 0 0 1 2.403-1.394 9.2 9.2 0 0 1 2.888-.444q1.656 0 3.009.404t2.322 1.292q.969.89 1.515 2.343.545 1.454.545 3.554v.848h-4.483v-.646q0-1.212-.263-2.04-.262-.828-.868-1.272t-1.737-.444q-.807 0-1.454.323-.645.323-1.01 1.05-.363.726-.363 1.939 0 1.17.444 1.959.444.788 1.212 1.332.768.546 1.696.99.929.444 1.96.888 1.03.445 1.958 1.05.93.606 1.716 1.475.788.868 1.232 2.12.445 1.252.445 3.03 0 2.988-.99 4.866t-2.767 2.767q-1.776.888-4.2.888M0 81.31V53.562h8.24q2.422 0 4.018.788t2.383 2.262q.787 1.473.787 3.534 0 1.735-.505 3.07-.504 1.332-1.353 2.22a5.95 5.95 0 0 1-1.979 1.374v.161a6.9 6.9 0 0 1 2.202 1.11q.99.75 1.555 2.06.565 1.313.565 3.414 0 2.907-1.11 4.604-1.111 1.695-3.252 2.423-2.14.727-5.17.727zm4.645-4.039h3.029q1.938 0 2.746-1.01t.808-3.11q0-1.21-.323-2.1a2.64 2.64 0 0 0-1.09-1.373q-.768-.484-2.06-.484h-3.11zm0-11.914h2.867q1.171 0 1.878-.525t1.07-1.454q.364-.93.364-2.181 0-1.657-.828-2.626t-2.443-.969H4.645zm22.9 16.438q-3.11 0-5.19-1.515t-3.15-4.685-1.07-8.138 1.07-8.138 3.15-4.706 5.19-1.534 5.21 1.534 3.13 4.706 1.03 8.138-1.03 8.138-3.13 4.685-5.21 1.515m0-4.039q1.212 0 2.06-.545.848-.546 1.433-1.636t.849-2.706.262-3.797V65.76q0-2.181-.262-3.797-.263-1.615-.849-2.686-.585-1.07-1.433-1.615-.848-.546-2.06-.545-1.212 0-2.08.545t-1.434 1.615-.848 2.686-.283 3.797v3.311q0 2.181.283 3.797.282 1.615.848 2.706t1.434 1.636 2.08.545m21.527 4.039q-3.11 0-5.19-1.515t-3.15-4.685-1.07-8.138 1.07-8.138 3.15-4.706 5.19-1.534 5.21 1.534 3.13 4.706 1.03 8.138-1.03 8.138-3.13 4.685-5.21 1.515m0-4.039q1.211 0 2.06-.545.848-.546 1.433-1.636t.849-2.706.262-3.797V65.76q0-2.181-.262-3.797-.263-1.615-.849-2.686-.585-1.07-1.433-1.615-.849-.546-2.06-.545-1.212 0-2.08.545-.87.545-1.434 1.615-.566 1.071-.848 2.686-.283 1.616-.283 3.797v3.311q0 2.181.283 3.797.282 1.615.848 2.706t1.434 1.636 2.08.545m12.843 3.554V53.562h4.726v13.41l7.674-13.41h4.887l-6.786 11.269 7.068 16.478h-5.129l-4.887-11.834-2.827 4.241v7.593zm33.725.485q-3.111 0-5.19-1.515t-3.15-4.685q-1.07-3.17-1.07-8.138t1.07-8.138 3.15-4.706q2.079-1.534 5.19-1.534 3.11 0 5.21 1.534t3.13 4.706 1.03 8.138-1.03 8.138-3.13 4.685-5.21 1.515m0-4.039q1.21 0 2.06-.545.848-.546 1.433-1.636t.848-2.706.263-3.797V65.76q0-2.181-.263-3.797-.262-1.615-.848-2.686-.585-1.07-1.434-1.615-.848-.546-2.06-.545-1.21 0-2.08.545-.867.545-1.433 1.615-.566 1.071-.848 2.686-.283 1.616-.283 3.797v3.311q0 2.181.283 3.797.281 1.615.848 2.706.566 1.09 1.434 1.636t2.08.545m12.843 3.554V53.562h13.126v4.04h-8.4v8.117h7.068v4.12h-7.068v11.47zm27.666.485q-1.696 0-3.13-.364a6 6 0 0 1-2.504-1.292q-1.071-.93-1.656-2.565t-.586-4.18v-.767h4.564v.807q0 1.615.323 2.565.325.95 1.03 1.353.707.404 1.878.404.647 0 1.151-.141.505-.142.91-.465.402-.323.666-.787.263-.465.403-1.111.142-.647.142-1.494 0-1.131-.465-1.919-.464-.788-1.232-1.333a11.5 11.5 0 0 0-1.696-.99q-.93-.443-1.959-.908-1.03-.465-1.958-1.07a8.3 8.3 0 0 1-1.697-1.474q-.767-.87-1.232-2.1-.464-1.233-.464-3.01 0-2.1.626-3.594t1.676-2.444a6.6 6.6 0 0 1 2.403-1.393 9.2 9.2 0 0 1 2.888-.444q1.656 0 3.009.404t2.322 1.292 1.515 2.343.545 3.554v.848h-4.483v-.646q0-1.212-.263-2.04-.262-.828-.868-1.272t-1.737-.444q-.807 0-1.454.323-.645.323-1.01 1.05-.363.726-.363 1.938 0 1.171.444 1.96.445.787 1.212 1.332.768.544 1.696.99.93.444 1.96.888t1.958 1.05q.929.606 1.717 1.474.787.87 1.231 2.12.445 1.252.445 3.03 0 2.989-.99 4.867t-2.766 2.766q-1.778.89-4.2.889m10.905-.485V53.562h14.701v4.04h-9.976v7.552h8.603v4.079h-8.603v8.037h10.138v4.04zm25.97.485q-3.272 0-5.19-1.555-1.92-1.555-2.747-4.746-.828-3.191-.828-8.077 0-7.392 2.202-10.865 2.2-3.474 7.209-3.473 2.706 0 4.483 1.13 1.778 1.131 2.706 3.575.93 2.444.929 6.361h-4.524q0-2.262-.363-3.837-.364-1.575-1.191-2.383-.828-.807-2.282-.807-1.495 0-2.464.908-.97.909-1.454 2.827-.485 1.92-.485 4.988v3.312q0 3.03.465 4.928t1.393 2.786q.93.89 2.423.889 1.414 0 2.303-.767.888-.768 1.312-2.303t.424-3.877h4.403q0 3.877-1.03 6.3t-2.949 3.555-4.745 1.13m12.076-.485V53.562h8.481q3.03 0 4.706 1.07t2.342 2.868.667 4.019q0 2.706-.748 4.745-.747 2.04-2.362 3.01l4.2 12.035h-4.927l-3.555-10.46h-4.079v10.46zm4.725-14.5h3.07q2.019 0 2.847-1.272t.828-3.574q0-1.535-.343-2.504t-1.192-1.414-2.342-.444h-2.868zm14.944 14.5V53.562h14.701v4.04h-9.976v7.552h8.603v4.079h-8.603v8.037h10.138v4.04zm22.375 0V57.642h-6.018v-4.08h16.68v4.08h-5.977v23.667zm20.113.485q-1.696 0-3.13-.364a6 6 0 0 1-2.504-1.292q-1.07-.93-1.656-2.565t-.585-4.18v-.767h4.564v.807q0 1.615.323 2.565.322.95 1.03 1.353.706.404 1.878.404.645 0 1.15-.141.505-.142.91-.465.403-.323.666-.787.263-.465.404-1.111.141-.647.141-1.494 0-1.131-.464-1.919-.465-.788-1.232-1.333a11.5 11.5 0 0 0-1.696-.99q-.93-.443-1.96-.908t-1.958-1.07a8.3 8.3 0 0 1-1.696-1.474q-.768-.87-1.232-2.1-.465-1.233-.465-3.01 0-2.1.626-3.594.627-1.493 1.676-2.444a6.6 6.6 0 0 1 2.403-1.393 9.2 9.2 0 0 1 2.888-.444q1.656 0 3.01.404 1.352.404 2.322 1.292.968.888 1.514 2.343.546 1.454.545 3.554v.848h-4.483v-.646q0-1.212-.262-2.04-.263-.828-.869-1.272t-1.736-.444q-.809 0-1.454.323-.647.323-1.01 1.05-.363.726-.364 1.938 0 1.171.445 1.96.444.787 1.211 1.332.768.544 1.697.99.928.444 1.959.888 1.03.444 1.958 1.05.93.606 1.717 1.474.788.87 1.232 2.12.444 1.252.444 3.03 0 2.989-.99 4.867t-2.766 2.766q-1.778.89-4.2.889M425.808 8.105c1.052-.176 3.618-.12 4.68.093 3.12.63 6.932 2.437 10.006 4.744 2.843 2.122 3.775 3.485 3.785 5.523 0 1.075-.222 1.974-.748 3.086-.49.992-1.265 1.919-1.957 2.326-.97.575-2.797.12-3.988-.982-2.012-1.872-4.366-3.123-7.477-3.976-1.07-.296-1.19-.305-2.963-.305-2.142 0-3.074.148-4.21.685-1.725.816-2.953 2.41-3.784 4.884-.406 1.233-.498 2.206-.47 4.8l.036 2.29.36.74c.416.844 1.422 1.938 2.373 2.577 1.126.77 4.661 2.669 5.667 3.04 2.428.917 5.188.898 7.514-.047 1.939-.778 4.154-2.307 6.231-4.29.95-.918 1.246-1.075 1.625-.89.507.24 1.32 1.538 2.049 3.234.49 1.14 1.098 3.253 1.108 3.809 0 .556-.323 1.066-1.357 2.131-1.736 1.798-2.945 2.678-5.751 4.208-3.074 1.668-2.834 1.575-4.93 1.927-4.181.723-5.953.667-8.446-.25-.563-.213-1.283-.426-1.615-.482-.84-.148-1.92-.537-2.557-.917-.942-.556-3.203-2.308-4.052-3.123-1.431-1.372-2.216-2.549-2.816-4.198a46 46 0 0 0-.766-1.9c-1.126-2.632-1.57-4.17-1.966-6.802-.185-1.168-.222-1.854-.222-3.985l-.001-.527v-.457c.002-1.346.036-1.764.168-2.443l.046-.224c.314-1.464 1.08-3.744 1.67-4.995 2.354-4.958 7.034-8.368 12.758-9.304m3.96 2.632c-.905-.195-3.102-.186-4.173 0-1.56.278-2.852.713-4.228 1.408-.738.371-1.578.77-1.864.88-1.348.501-3.582 3.068-4.782 5.487-1.412 2.854-1.754 6.95-.987 12.019.36 2.4.664 3.392 1.643 5.44 1.117 2.307 2.169 3.753 3.812 5.245 2.815 2.548 7.477 4.096 11.64 3.864 1.302-.065 3.572-.37 4.459-.593 1.975-.5 4.966-1.853 5.15-2.326.056-.139-1.2-3.392-1.476-3.818l-.13-.213-1.19.575c-2.004.973-4.994 1.844-7.016 2.048-1.883.185-3.535-.075-5.917-.936-1.403-.51-1.883-.76-3.323-1.733-1.819-1.242-3.295-2.836-3.859-4.198-.452-1.075-.793-3.596-.867-6.32-.056-2.262.046-3.253.507-4.866.582-2.075 2.114-4.41 3.702-5.68.877-.705 2.677-1.631 3.979-2.048 2.852-.927 4.993-.779 8.132.574 2.04.88 3.194 1.576 4.735 2.864.48.408.914.723.97.704.129-.037 1.523-3.373 1.467-3.521-.064-.158-3.47-2.02-5.584-3.05-1.883-.917-3.582-1.556-4.8-1.806m1.421 30.516c.96-.019 1.052 0 1.302.213.24.204.277.315.314.899.027.547 0 .714-.148.89-.37.454-2.622.787-3.231.482-.323-.158-.554-.668-.628-1.381-.083-.788.037-.955.785-1.029a17 17 0 0 1 1.606-.074m-9.01-1.353c.315-.167.287-.176 1.81.324 1.55.5 1.662.593 1.735 1.437.056.741-.156 1.195-.609 1.279-.71.139-2.464-.436-3.286-1.066-.35-.278-.397-.362-.397-.695.01-.436.388-1.075.748-1.279m14.89-.037c.674-.269 1.071-.213 1.348.195.24.36.286.917.101 1.315-.23.51-1.237 1.02-2.049 1.03-.36 0-.508-.047-.692-.233-.25-.26-.397-.806-.305-1.167.065-.269.914-.871 1.597-1.14m4.69-4.05c-.388-.306-1.2.158-1.33.75-.12.548.868 3.003 1.366 3.393.231.185.351.213.711.166.942-.13.988-.602.212-2.094-.258-.51-.553-1.195-.646-1.51-.092-.325-.23-.64-.314-.705m-25.1-.899c.305-.12.342-.12.684.056.674.334 2.243 2.465 2.363 3.188.11.704-.36 1.232-1.099 1.223-.212 0-.47-.074-.581-.167-.295-.24-1.892-2.928-1.939-3.28-.055-.352.25-.89.573-1.02m25.016-17.737-.184.278c-.102.158-.499.908-.886 1.678-.739 1.445-.85 1.9-.554 2.196.277.287.618.185 1.117-.334.812-.843 1.292-2.15 1.07-2.891a2.3 2.3 0 0 0-.341-.649zm-22.384-2.91c.729-.481 1.006-.472 1.255.047.11.231.185.584.185.908 0 .454-.056.602-.36 1.056-.582.844-2.004 1.89-2.567 1.89-.443 0-.729-1.074-.489-1.806.157-.482 1.21-1.594 1.976-2.095m16.532-.565c.314 0 1.265.482 1.902.973 1.061.825 1.31 1.659.673 2.29-.507.518-.673.472-2.206-.65-1.421-1.028-1.624-1.232-1.624-1.556s.323-.751.71-.927c.167-.065.416-.13.545-.13m-5.862-2.03c.416-.148.85-.046 1.819.4 1.126.518 1.301.815.978 1.63-.175.436-.535.677-1.015.677-.397 0-1.625-.343-2.29-.64-.498-.222-.507-.24-.507-.62 0-.659.397-1.233 1.015-1.446m-5.381.028c1.09-.296 1.966-.315 2.234-.046.277.287.267 1.066-.028 1.335-.277.259-1.154.62-2.15.898-.758.214-.767.214-1.016.028-.222-.167-.259-.268-.277-.806-.056-1.084-.083-1.056 1.237-1.409m25.394-1.204c-.932.51-1.81 1.538-2.27 2.66-.195.481-.204.657-.269 9.294-.036 4.847-.092 10.444-.129 12.427-.064 3.92-.055 4.115.434 5.384.157.408.35 1.131.434 1.604.258 1.473.628 1.594 2.123.695.508-.315 1.006-.686 1.09-.816.202-.306.212-.5.332-5.282.101-4.319.23-5.931.48-5.931.083 0 .895.593 1.8 1.316 2.612 2.094 4.061 3.114 10.809 7.617 7.948 5.31 8.206 5.468 8.834 5.468.563 0 .97-.176 1.523-.649.535-.454.665-.917.462-1.557a7.5 7.5 0 0 1-.25-1.102c-.23-1.455-1.375-2.493-6.692-6.042a209 209 0 0 0-9.332-5.83c-1.45-.861-2.659-1.603-2.677-1.658-.037-.12 3.553-1.881 5.03-2.456.61-.24 2.022-.75 3.148-1.14 2.27-.778 3.083-1.13 4.81-2.122.664-.37 2.113-1.158 3.23-1.742 3.286-1.715 8.142-4.773 8.557-5.384.277-.399.286-.946.028-1.455a2 2 0 0 1-.194-.862c0-.408-.046-.519-.258-.686-.48-.38-.803-.278-2.05.603-.489.352-1.237.834-1.67 1.093-.979.575-4.016 2.002-6.49 3.058-6.397 2.725-10.21 4.597-15.388 7.562-2.27 1.297-2.667 1.501-2.917 1.446-.618-.13-.6.046-.572-4.82.019-5.884-.25-9.711-.766-10.73-.185-.352-.517-.343-1.2.037m-77.216.769c-1.108.686-1.145.77-1.062 2.77.102 2.188.296 4.338.683 7.442.434 3.457.61 5.18.683 6.867.037.75.13 2.169.213 3.16.166 1.946.129 3.15-.12 4.652-.37 2.178-1.043 3.188-2.64 3.939-.628.296-.702.315-2.114.342-1.782.047-2.206-.037-3.48-.657-2.05-1.001-3.462-2.818-4.265-5.505-.295-.982-.757-1.974-.96-2.048-.222-.093-2.215.945-2.363 1.223-.166.315-.092 2.484.12 3.503.554 2.613 1.855 4.912 3.572 6.302 1.634 1.316 3.896 2.26 5.446 2.27 1.182.019 4.644-.862 6.204-1.566 1.818-.816 3.11-2.169 3.738-3.892.859-2.363 1.136-4.782.822-7.2-.471-3.633-.85-7.229-1.071-10.102-.388-5.152-.905-10.323-1.08-10.805-.083-.241-.323-.602-.526-.806-.526-.52-.813-.5-1.8.11m-76.57.037a8.7 8.7 0 0 0-2.4.806c-1.339.667-1.394.77-.951 1.668.23.5.267.686.332 2.104.13 2.799.268 5.097.554 9.054.157 2.14.258 4.133.23 4.43-.027.305.028.935.12 1.454.093.51.195 1.807.24 2.873.111 2.743.462 4.884 1.127 6.793.517 1.492.47 1.445 2.077 1.862 1.67.436 2.243.473 6.517.417 4.44-.055 5.298-.139 7.458-.695 2.622-.676 4.256-1.454 5.945-2.826 1.043-.843 2.87-2.548 3.092-2.882.527-.806.702-1.89.536-3.392-.314-2.835-1.302-5.06-2.963-6.607-.406-.38-.776-.695-.831-.695-.046 0-.083-.065-.083-.148 0-.075.314-.353.701-.603 1.293-.852 2.428-2.085 3.36-3.623 1.228-2.03 1.154-4.235-.24-7.145-.535-1.112-1.126-1.724-2.058-2.113-.895-.37-1.865-.64-2.677-.723-.323-.028-3.332-.018-6.692.047-4.117.064-6.647.064-7.754 0-3.037-.176-4.893-.195-5.64-.056m20.132 5.227c1.172.565 1.79 1.39 1.717 2.289-.101 1.25-1.495 3.03-2.935 3.725-1.865.908-2.548.982-10.025 1.177-2.215.055-4.532.148-5.142.194-2.787.241-2.769.241-2.972.028-.397-.398-.6-2.585-.535-5.653l.037-1.686.258-.102c.24-.102 12.019-.26 17.123-.232 1.883.01 1.948.019 2.474.26m-5.437 12.25c1.699.177 3.148.77 4.385 1.79 1.024.852 1.495 1.788 1.412 2.78-.166 1.862-2.363 3.632-5.354 4.308-.803.186-1.274.204-5.908.241-5.28.047-6.443-.018-6.858-.352-.185-.157-.24-.491-.619-4.003-.461-4.18-.489-4.717-.304-4.8.24-.093 12.268-.056 13.246.037m86.909-16.726c-.646.102-2.631 1.102-3.693 1.853-2.252 1.603-4.227 4.198-5.446 7.163-1.366 3.318-2.51 8.554-3 13.697-.23 2.419-.23 6.33-.009 7.386.203.936.48 1.538.822 1.77.673.435 2.123-.074 2.612-.918.24-.398.258-.51.212-1.27-.101-2.02-.018-6.004.148-7.163.221-1.566.508-2.882.674-3.048.323-.325 4.006-.39 9.508-.167 3.701.148 4.643.24 4.873.472.148.149.536 2.65.702 4.541.277 3.262.508 4.82.932 6.422.296 1.094.453 1.427.711 1.51.286.084 1.43-.546 2.123-1.185.637-.575.822-.973.739-1.585-.665-5.013-1.514-10.99-1.643-11.667-.084-.39-.453-1.705-.822-2.92a131 131 0 0 1-1.126-3.91c-.979-3.772-1.33-4.782-2.077-6.024-1.19-1.992-3.35-4.198-4.662-4.763a2.64 2.64 0 0 0-1.578-.194m-.277 5.532c.858.213 1.486.482 1.855.816.36.333 2.059 2.492 2.4 3.067.471.788 1.579 4.3 1.459 4.615-.037.102-.693.157-2.705.25-5.621.26-6.545.37-8.215 1-.776.297-1.108.38-1.182.307-.24-.241.83-2.956 2.363-5.996 1.902-3.8 2.206-4.254 2.853-4.244.203 0 .729.083 1.172.185m-60.075 1.316c-3.064.5-5.261 1.557-6.997 3.336-2.021 2.094-3.055 4.726-3.461 8.86-.397 4.049.434 7.747 2.243 9.906 1.468 1.751 3.61 2.826 6.397 3.188 2.53.333 4.55.287 5.825-.149.821-.268 4.366-2.242 5.833-3.234 1.727-1.177 3.213-2.873 3.794-4.355.379-.983.545-2.178.545-3.976 0-1.78-.13-2.734-.655-4.92-.554-2.317-1.256-3.782-2.437-5.098-1.394-1.538-3.785-2.835-6.333-3.428-1.098-.25-3.6-.325-4.754-.13m2.88 5.3c2.576.149 2.4.103 3.564.992 1.956 1.492 2.963 2.725 3.507 4.319.25.704.277.899.277 2.14 0 1.566-.13 2.169-.72 3.401-.71 1.474-1.837 2.567-3.443 3.346-1.67.815-2.695 1.02-4.855 1-2.465-.018-3.194-.185-5.419-1.223-.978-.463-1.578-1.019-1.901-1.77-.102-.25-.296-.991-.425-1.64-.655-3.253.018-7.117 1.68-9.573.323-.472.48-.611.766-.686.332-.083 2.65-.268 4.19-.333.352-.019.72-.037.84-.046.112-.01.989.027 1.94.074m84.694 25.531c-2.89.964-6.277 3.68-8.271 6.635-.85 1.252-1.163 1.808-1.736 3.114-2.455 5.551-4.126 14.447-4.135 22.037-.01 3.642.24 4.94 1.09 5.774.572.556.747.583 1.522.24 1.376-.611 1.911-1.204 1.92-2.122 0-.24-.009-2.103-.018-4.133-.028-3.002 0-3.91.13-4.819.184-1.306.691-3.697.802-3.818.296-.287 6.24-.352 11.779-.12 3.581.148 5.123.306 5.363.547.166.185.563 2.937.905 6.403.323 3.244.47 4.263.84 5.94.276 1.242.553 2.067.775 2.29.332.333 1.025.064 2.345-.918.83-.621 1.126-.982 1.227-1.53.083-.472-.618-6.032-1.504-11.907-.388-2.595-.628-3.716-1.025-4.884-.185-.556-.748-2.511-1.255-4.365-1.367-4.976-1.736-6.209-2.16-7.182-.72-1.686-1.893-3.354-3.379-4.79-.997-.974-2.298-2.002-2.972-2.345-.6-.306-1.422-.325-2.243-.047m.203 6.496c.637.167 1.32.39 1.523.492.526.268 1.098.815 1.532 1.464.212.306.637.843.95 1.195a9.3 9.3 0 0 1 1.016 1.51c.674 1.28 1.837 4.986 1.68 5.376-.073.204-.452.25-2.926.315-2.732.074-5.492.222-6.738.352-1.219.13-2.087.343-3.25.797-1.181.463-1.495.528-1.495.306 0-.27.462-1.733.886-2.818.49-1.25 3.526-7.33 4.099-8.22.452-.713.895-1.065 1.32-1.065.138 0 .775.13 1.403.296m-116.762-3.002c-.406.278-.886.973-1.144 1.677-.176.473-.222 1.029-.388 4.791a392 392 0 0 0-.25 7.766c-.027 1.928-.091 3.642-.128 3.8l-.083.287-1.44.074c-.804.037-2.41.158-3.582.269-1.172.102-2.917.26-3.877.343-.96.074-2.354.213-3.102.296-.747.084-1.929.204-2.621.287-.692.075-1.634.14-2.096.14-.784 0-.84-.01-.895-.223-.028-.12-.055-1.056-.055-2.076 0-1.028-.093-3.197-.203-4.828a161 161 0 0 1-.24-6.023c-.037-3.059-.157-4.384-.48-5.487-.204-.676-.49-1.12-.739-1.12-.277 0-1.301 1-1.532 1.5-.351.751-.425 3.253-.37 12.566.065 9.332.148 12.316.453 14.79.101.909.24 2.466.295 3.448.148 2.697.563 5.282.896 5.616.193.194.941.018 1.67-.39.425-.24.665-.454.877-.796l.287-.473-.01-2.048c0-1.13-.101-3.568-.212-5.43-.11-1.863-.185-3.448-.157-3.522.074-.176.452-.204 5.179-.454 2.104-.102 4.873-.25 6.157-.334 1.273-.074 3.11-.166 4.08-.204l1.763-.064.12.222c.092.185.092.825-.01 3.15-.147 3.55-.083 8.452.148 10.463.157 1.4.25 1.761.452 1.761.065 0 .61-.269 1.219-.602.96-.52 1.145-.668 1.366-1.048l.259-.444-.047-4.235c-.073-6.228-.018-16.375.102-20.277.055-1.88.13-4.225.157-5.217.046-1.39.018-2.02-.102-2.817a91 91 0 0 1-.304-2.335c-.342-3.003-.536-3.392-1.413-2.799m141.547 2.52c-.434.047-1.523.232-2.419.427-.895.185-1.726.333-1.846.333-.148 0-.268-.092-.37-.296-.138-.26-.193-.287-.415-.241-.387.102-.914.556-1.126.982-.166.334-.184.612-.194 2.716-.009 2.51.185 12.705.286 14.799.037.695.167 3.188.296 5.542.12 2.353.258 4.856.286 5.55.074 1.363.268 2.614.443 2.827.139.176.397.037 1.292-.714 1.136-.945 1.044-.296.924-6.839-.056-3.123-.074-5.8-.037-5.949.064-.324.046-.315.83-.12.462.12.822.148 1.533.092 2.16-.157 3.812-.565 6.129-1.52 2.428-1 4.043-2.01 5.419-3.4 1.569-1.576 1.901-2.54 1.8-5.153-.065-1.696-.277-2.604-.887-3.846-.904-1.816-1.966-2.891-3.683-3.744-1.717-.843-3.101-1.214-5.557-1.455-1.135-.11-1.56-.11-2.704.01m-1.856 4.032c2.816.231 3.85.417 5.705 1.028 2.575.844 5.99 3.012 6.157 3.911.13.714-.61 1.983-1.523 2.595-.803.537-2.225.973-5.077 1.557-1.948.398-2.677.51-3.776.556-1.513.065-2.363-.056-2.658-.38-.323-.343-.61-2.78-.785-6.672-.083-1.928-.083-2.493.01-2.605.064-.083.129-.148.147-.148.019 0 .831.074 1.8.158m23.733-4.04c-1.265.13-1.948.259-3.702.704-1.587.398-1.624.398-1.818.222-.111-.102-.194-.24-.194-.315 0-.074-.092-.13-.203-.13-.526 0-1.274.705-1.459 1.381-.138.51-.064 3.318.148 5.523.074.834.166 2.215.194 3.068.175 4.383.665 12.149.932 14.641.102.992.296 3.077.434 4.625.323 3.744.535 4.911.914 4.911.138 0 .97-.649 1.717-1.353.47-.445.535-.806.415-2.483-.138-2.02-.48-9.193-.48-10.046 0-.38.046-.723.093-.76.055-.028.341.019.636.111.49.158.665.158 1.819.056 2.76-.26 5.723-1.251 8.603-2.882 2.576-1.464 4.532-3.401 5.096-5.032.258-.732.249-3.373 0-4.54-.453-2.123-1.256-3.652-2.52-4.82-1.376-1.27-3.693-2.298-6.139-2.743-1.043-.185-3.378-.26-4.486-.139m-2.086 4.373c3.923.213 6.138.76 9.009 2.197 1.182.602 2.557 1.51 3.065 2.038.452.464.452.927.018 1.817-.794 1.621-2.17 2.307-6.665 3.345-2.695.621-3.397.723-4.892.723-1.458 0-1.883-.12-2.114-.602-.157-.343-.554-3.021-.738-5.042-.351-3.883-.37-4.281-.25-4.43.139-.166.268-.166 2.567-.046m-146.744.065c-1.301.195-2.437.797-3.553 1.863-1.007.964-1.477 1.677-2.336 3.568-.775 1.705-.978 2.233-1.264 3.428-.314 1.28-.333 1.372-.499 3.337-.332 3.892-.36 4.503-.314 6.227.111 3.8.785 6.496 2.114 8.48.942 1.399 2.474 2.696 4.07 3.428 1.478.677 2.52.714 4.026.13 3.941-1.53 5.713-3.494 6.96-7.71 1.089-3.707 1.393-6.941 1.033-11.065-.313-3.623-.627-4.847-1.91-7.386-.822-1.63-1.2-2.057-2.585-2.891-1.006-.603-1.79-.936-2.806-1.186-.794-.186-2.382-.315-2.936-.223m2.327 4.699c.378.12.923.342 1.218.49.96.492 2.317 1.604 2.742 2.253.175.26.83 2.52 1.154 3.929.221.991.295 3.345.147 5.097-.157 1.992-1.061 5.643-1.772 7.182-.406.88-1.228 1.779-1.939 2.113-1.043.5-3.406.695-4.67.398-2.631-.62-4.496-3.114-4.828-6.478-.074-.658.083-4.485.25-6.227.138-1.455.645-4.254.978-5.384.618-2.095 1.347-3.003 2.778-3.485.794-.26 2.972-.194 3.942.112m65.087-3.763c-.804.547-.84.77-.97 5.857-.055 1.983-.138 4.328-.194 5.208-.193 3.494-.064 8.813.296 11.992.258 2.28.748 3.984 1.237 4.244.489.269 1.864.315 7.874.287 7.015-.037 6.267.065 7.541-.991.84-.695.923-.825.776-1.196-.056-.148-.139-.574-.185-.945-.13-1.177.425-1.075-6.028-1.047-5.501.027-7.181-.037-8.003-.306-.277-.093-.378-.195-.47-.463-.158-.51-.324-2.345-.388-4.476-.074-2.336-.148-2.215 1.209-2.002.526.093 1.31.157 1.735.157s1.403.084 2.17.186c1.08.148 1.827.185 3.295.157 2.15-.037 2.575-.12 3-.602.36-.417.397-.797.139-1.538a5.6 5.6 0 0 1-.194-.844c-.13-1.028-.831-1.25-4.163-1.325a58 58 0 0 0-3.924.065c-.941.065-2.077.139-2.538.176-.452.028-.85.019-.877-.037-.028-.046-.018-1.872.028-4.068.064-3.503.092-3.994.23-4.096.12-.093.342-.065 1.053.111 1.283.324 2.778.556 6.35.973 3.074.352 3.148.352 3.776.195 1.57-.39 2.03-1.205 1.625-2.91-.222-.955-.573-1.168-2.483-1.474-1.062-.166-4.994-.482-8.087-.64-1.172-.055-2.27-.147-2.437-.194a1.34 1.34 0 0 1-.507-.389c-.259-.343-.462-.361-.886-.065m-45.943.074c-.507.037-1.55.213-2.317.38-1.698.362-1.79.362-1.929.056-.064-.14-.194-.25-.295-.25-.314 0-.83.426-1.062.88l-.23.436.083 3.697c.037 2.039.064 4.161.055 4.717-.037 1.603.157 7.58.37 11.584.34 6.552.424 7.478.7 7.756.13.13.093.158 1.22-.685.83-.621.82-.584.775-3.66a515 515 0 0 1-.037-5.31v-2.623l.23-.038c.148-.018.61.232 1.45.797 3.184 2.132 6.84 5.023 11.437 9.036.683.593 1.301 1.065 1.468 1.103.36.074 1.015-.214 1.403-.621.36-.39.433-1.029.203-1.826-.342-1.158-.083-.89-5.816-6.264-2.981-2.78-3.295-3.105-3.184-3.207.046-.037.341-.176.664-.296.84-.325 2.216-1.02 2.806-1.409.702-.473 1.967-1.585 2.41-2.122.646-.806.867-1.427.978-2.78.12-1.539-.018-2.678-.47-3.948-.684-1.928-1.607-3.012-3.37-3.994-2.04-1.121-4.79-1.64-7.542-1.409m-.396 3.753c1.393.167 2.732.436 3.775.779 1.902.612 4.772 2.344 5.372 3.243.231.343.213.547-.11 1.224-.342.713-.933 1.325-1.597 1.64-1.634.778-5.862 1.612-8.16 1.612-1.284 0-1.68-.139-1.856-.676-.148-.464-.397-2.799-.517-4.819-.13-2.28-.13-3.132.028-3.197.157-.074 1.597.018 3.065.194m28.93-3.762c-1.709.158-2.253.287-3.296.825-.536.278-1.339.76-1.782 1.084-1.588 1.14-3.397 3.206-4.181 4.791-.277.556-.305.686-.315 1.603-.009 1.409.296 2.484 1.007 3.522.554.806.683.852 5.141 1.612 7.062 1.205 8.059 1.483 9.748 2.678 1.062.751 2.077 2.085 2.28 2.966.102.472-.027 1.686-.249 2.317-.25.713-.72 1.445-1.182 1.853-.341.306-.59.417-1.135.547-3.01.695-7.652-.427-10.93-2.632-1.329-.899-1.467-.955-2.289-.899-.516.037-.793.102-.978.241-.25.185-.258.24-.258.964.009 2.242 1.615 4.18 4.393 5.291 1.985.806 5.631 1.483 8.059 1.501l1.31.01 1.053-.51c1.31-.649 1.966-1.084 2.797-1.863.84-.797 1.486-1.779 1.8-2.724.23-.695.25-.862.24-2.641 0-2.169-.148-3.207-.646-4.69-.49-1.445-1.034-2.316-2.096-3.391-1.864-1.872-3.673-2.465-8.852-2.92-3.212-.268-4.597-.555-5.862-1.204-.646-.324-.646-.5-.046-1.325 1.191-1.659 2.539-2.53 4.708-3.04.775-.185 1.182-.213 3.12-.213 1.902 0 2.419.037 3.49.232 1.513.269 2.695.296 3.138.065.397-.204.526-.473.526-1.075 0-.9-.415-1.39-1.69-1.993-.895-.417-1.504-.602-2.796-.824-1.062-.176-3.102-.26-4.228-.158"/><path fill-rule="evenodd" d="M522.88 35.835c-1.826.417-4.277 1.095-5.476 1.512l-2.19.782v23.992l3.702 1.252c7.04 2.347 14.966 2.139 22.058-.521l2.972-1.096v-2.608c0-3.181-.782-4.016-3.65-3.807-1.982.209-2.086.313-2.242 2.243-.157 1.877-.365 2.086-2.503 2.66-2.451.678-12.776.47-13.923-.261-.522-.313-.678-2.92-.678-9.91V40.53l2.034-.574c2.711-.73 9.438-.73 12.515.052 2.138.522 2.45.782 2.45 2.086 0 1.93.887 2.765 3.077 2.765 2.138 0 2.92-1.148 2.92-4.277 0-2.034-.156-2.243-2.346-3.13-3.077-1.2-9.7-2.451-12.88-2.399-1.408 0-4.068.365-5.84.783m33.738-.053c-1.878.47-4.329 1.252-5.476 1.774l-1.981.99-.157 4.903c-.104 2.66 0 5.06.261 5.32.313.313 20.754 4.85 21.849 4.85.104 0 .209 1.357.209 2.974 0 2.973 0 3.025-2.034 3.546-2.66.783-10.22.783-12.88 0-1.669-.417-2.034-.834-2.034-1.825 0-2.608-2.972-3.964-5.162-2.347-.73.522-.939 1.304-.782 3.442l.156 2.712 3.859 1.304c3.233 1.148 4.797 1.356 10.377 1.356s7.196-.208 10.429-1.356l3.807-1.356V50.647l-10.795-2.19-10.794-2.243v-2.817c0-2.868 0-2.868 2.034-3.442 2.607-.73 8.03-.73 10.533-.052 1.565.47 2.086.939 2.503 2.347.47 1.669.678 1.773 2.973 1.773 2.398 0 2.503-.052 2.972-2.086.73-2.92.052-3.703-4.328-5.164-4.693-1.617-11.003-1.982-15.54-.99m67.267.053c-.573.678.157 2.972 4.12 13.247 6.622 17.16 5.527 15.49 10.325 15.49 2.555 0 4.223-.26 4.588-.677.313-.365 2.816-6.572 5.632-13.77 3.807-9.857 4.954-13.3 4.537-13.978-.626-.938-3.337-1.408-4.38-.73-.522.313-2.868 5.946-9.595 23.106-.678 1.825-.522 2.086-5.684-11.214-2.347-5.998-4.485-11.266-4.745-11.631-.782-.939-3.963-.834-4.798.157m33.739-.47c-.157.209-.313 6.833-.313 14.76v14.448H669.2c12.358 0 13.297-.157 13.297-2.295 0-1.356-1.252-1.513-10.69-1.67l-8.239-.156-.156-4.485-.157-4.538h5.684c6.049 0 7.77-.573 7.405-2.451-.261-1.408-1.93-1.826-7.979-1.878l-5.058-.052v-7.667h7.249c4.015 0 7.821-.156 8.447-.313 1.773-.521 2.086-1.982.678-3.13-.99-.834-2.45-.938-11.42-.938-5.632 0-10.429.156-10.637.365m34.833.678c-6.727 1.826-6.153.522-6.153 13.978v11.735l3.441 1.2c6.466 2.243 16.687 2.086 22.996-.417l2.034-.835v-11.37l-4.797.052c-5.736.052-7.457.47-7.718 1.878-.313 1.512 1.408 2.451 4.432 2.451h2.608v2.19c0 1.93-.209 2.296-1.512 2.817-2.347.939-8.917 1.2-12.359.47l-3.129-.626.157-9.701.156-9.65 3.285-.73c3.442-.73 8.813-.469 11.681.522 1.408.47 1.72.887 1.72 2.19 0 2.035 2.034 3.182 4.12 2.191 1.2-.521 1.356-.939 1.356-3.546v-2.973l-3.702-1.2c-5.267-1.773-13.297-2.034-18.616-.626m39.265-.678c-.886.209-12.567 26.078-12.567 27.8 0 .469.626 1.147 1.408 1.408 2.399.939 4.068-.313 5.736-4.381l1.512-3.547 7.405-.156 7.353-.157 1.512 3.547c.834 1.982 1.877 3.86 2.242 4.224 1.095.887 3.442.73 4.432-.26.835-.783.365-2.035-4.745-13.874-3.129-7.198-6.153-13.509-6.727-14.03-1.042-.887-5.214-1.2-7.56-.574m6.31 10.588c1.356 3.181 2.503 5.79 2.503 5.894 0 .052-2.347.104-5.215.104s-5.214-.104-5.214-.26c0-.314 4.328-10.64 4.745-11.371.417-.678.47-.574 3.181 5.633m24.56-10.118c-1.564.417-3.754 1.147-4.849 1.616l-1.93.783.157 5.372.156 5.372 10.951 2.19 10.95 2.243v5.946l-2.19.626c-2.815.834-9.125.834-12.306.052-2.19-.574-2.503-.887-2.66-2.295-.26-1.982-.886-2.451-3.232-2.451-2.086-.052-2.868 1.147-2.868 4.016 0 1.565.26 2.086 1.512 2.764 5.684 2.921 18.147 3.338 24.456.835l3.285-1.356.157-5.164c.104-2.816-.052-5.32-.26-5.58-.262-.261-4.016-1.2-8.396-2.087-4.328-.886-9.23-1.877-10.795-2.243l-2.92-.625.157-2.817.156-2.816 3.025-.678c3.076-.73 8.239-.522 10.742.417.834.313 1.303.939 1.303 1.773 0 1.721.991 2.556 3.025 2.556 2.294 0 3.024-.835 3.024-3.651 0-2.034-.26-2.451-1.616-3.13-4.537-2.347-13.61-3.129-19.033-1.668m-179.067.052c-.887.365-.887 2.086 0 2.868.365.313 2.19.626 3.963.73l3.285.157.156 10.536.105 10.535-3.911.157c-4.12.156-5.423.938-4.693 2.816.312.835 1.564.887 11.42.782 9.96-.156 11.106-.26 11.628-1.147.99-1.617-.887-2.608-4.954-2.608h-3.441v-21.28l3.598-.156c4.015-.209 5.475-1.2 4.067-2.869-.574-.73-2.19-.834-10.638-.834-5.475.052-10.22.208-10.585.313m22.527 9.18c-.209.469-.261 1.355-.157 2.085.157 1.148.47 1.252 3.494 1.252h3.285l.156-2.034.157-2.086h-3.337c-2.347 0-3.39.26-3.598.782m.417 7.927c-.47.26-.678 1.2-.574 2.347l.209 1.826h6.57l.156-1.826c.21-2.243-.469-2.816-3.441-2.816-1.2 0-2.555.208-2.92.469"/><path fill-rule="nonzero" d="M853.396 44.999c1.277-.253 2.63-.909 3.921-1.908.407-.316 1.54-1.397 1.883-1.804.408-.48.978-1.202 1.223-1.564.991-1.442 1.78-2.708 1.906-3.06.036-.105.276-.62.534-1.145.688-1.392.815-1.681.874-1.93.027-.127.068-.267.09-.312.082-.15.259-.606.639-1.623.385-1.035 1.19-3.608 1.404-4.485.033-.137.07-.29.11-.445l.08-.314c.136-.522.268-1.013.299-1.095.031-.076.1-.19.149-.244.104-.117 3.355-1.745 3.4-1.704.014.013-.077.235-.204.488-.756 1.528-1.236 2.604-1.72 3.857-.475 1.216-.897 2.518-1.132 3.467-.068.276-.145.574-.167.665-.24.95-.295 2.816-.11 3.653.413 1.867 1.418 3.128 2.89 3.635.774.266 1.887.28 2.947.045.276-.059.95-.276.996-.317a.25.25 0 0 1 .109-.04c.14 0 1.218-.57 1.806-.959.792-.524 1.386-1.012 2.25-1.853 1.01-.986 1.091-1.058 1.128-1.004.072.104.697.466 1.095.637.286.127.575.208.92.258.461.072.56.077 1.163.01.851-.096 1.662-.29 2.255-.539.77-.325 1.956-1.013 2.49-1.442 1.385-1.117 2.468-2.324 3.6-4.033.47-.7.882-1.433 1.081-1.899.06-.14.136-.32.173-.402.249-.56.493-1.736.498-2.396 0-.308-.091-.913-.186-1.234-.1-.33-.353-.76-.552-.945-.652-.601-1.458-.177-1.93 1.017-.017.05-.09.267-.162.475a34 34 0 0 1-.498 1.374c-.023.054-.086.226-.145.38a11 11 0 0 1-.213.524c-.054.131-.163.385-.24.57-.158.389-.702 1.483-.978 1.976-.176.32-.77 1.28-.86 1.392-.018.027-.2.271-.403.547-1.06 1.456-2.658 2.54-3.26 2.224-.163-.085-.276-.248-.425-.619-.077-.19-.159-.389-.177-.443-.28-.683-.38-1.397-.38-2.68 0-1.118.1-2.298.29-3.396.199-1.144.271-1.451.411-1.727.114-.222.838-1.207 2.341-3.188.25-.325.611-.813.806-1.09.195-.275.367-.51.385-.523.022-.018.103-.131.22-.304l.156-.233c.397-.6 1.002-1.552 1.295-2.05.118-.2.331-.596.555-1.021l.168-.323c.12-.23.235-.458.336-.657l.111-.224c.12-.241.197-.407.197-.428 0-.01.077-.177.167-.376a5 5 0 0 0 .168-.38c0-.013.068-.18.158-.37.29-.628.929-2.32 1.187-3.151.335-1.067.366-1.194.647-2.446.04-.194.104-.62.24-1.628.073-.56.059-2.165-.027-2.644-.263-1.515-1.069-2.623-2.39-3.274-.716-.352-1.196-.411-1.717-.198-.57.235-1.208.944-1.734 1.93a8 8 0 0 1-.267.475c-.018.027-.113.199-.213.38-.258.474-.452.831-.561 1.021-.054.09-.204.37-.33.615-.132.249-.277.506-.317.57-.082.122-.508.98-1.123 2.27l-.064.13-.125.25c-.12.237-.223.425-.26.474-.054.072-.18.366-.28.65-.1.29-.399 1.068-.661 1.732a77 77 0 0 0-.602 1.569 80 80 0 0 0-.761 2.184c-.059.194-.14.452-.181.57a61 61 0 0 0-.58 1.876l-.056.19a34.827 34.827 0 0 0-.424 1.478 121 121 0 0 0-.575 2.292c-.04.199-.09.434-.113.524a82 82 0 0 0-.33 1.637l-.1.577-.065.39a52 52 0 0 0-.12.742c-.028.185-.073.461-.096.62-.24 1.568-.348 3.119-.353 5.031-.004 1.352-.013 1.41-.33 1.944-.077.131-.276.506-.449.832-.873 1.69-1.738 2.821-2.653 3.472-.919.651-1.272.579-1.824-.37-.38-.643-.498-1.212-.498-2.32.004-.9.054-1.293.29-2.256.063-.271.135-.57.158-.664.023-.09.1-.344.167-.57.073-.222.14-.443.154-.497.032-.113.335-1.004.39-1.14.022-.05.176-.434.34-.854.162-.416.352-.886.425-1.044.072-.154.2-.444.285-.642a81 81 0 0 1 1.435-2.885c.852-1.532 1.155-2.455 1.037-3.192-.127-.795-.543-1.537-1.245-2.21-.376-.362-.887-.746-1.227-.923a1.26 1.26 0 0 0-1.118.018c-.308.168-.353.208-2.092 1.904-.81.79-1.62 1.564-1.806 1.722-.412.348-1.173.922-1.196.9-.009-.01 0-.285.023-.606.027-.325.05-.854.054-1.184.005-.326.027-.796.05-1.045.095-.945.027-1.994-.15-2.441a1.6 1.6 0 0 0-.525-.67c-.19-.13-.235-.14-.656-.14-.398.005-.484.019-.706.132-.78.398-1.273.868-2.033 1.935-.548.764-.974 1.519-1.272 2.256-.073.18-.154.375-.177.425-.127.294-.353 1.134-.525 1.948-.086.394-.086 1.705 0 1.922.28.728.634 1.067 1.49 1.446.262.113.29.195.208.651a37 37 0 0 1-.553 2.482l-.072.263c-.376 1.433-1.15 3.612-1.789 5.054-.23.525-.67 1.429-.774 1.591a47 47 0 0 0-.919 1.732c-.589 1.207-1.825 2.961-2.748 3.893-.888.9-1.286 1.161-1.743 1.161-.313 0-.467-.099-.62-.415-.168-.34-.317-1.208-.218-1.27.018-.014.05-.146.068-.295.027-.248.082-.678.217-1.695.086-.67.195-1.225.38-1.971l.066-.26c.054-.217.102-.416.125-.5.027-.117.068-.257.09-.307.023-.054.118-.353.218-.665.095-.316.371-1.18.615-1.926.61-1.854.876-2.704 1.074-3.463l.06-.238.03-.119c.326-1.356.453-2.54.376-3.49-.1-1.203-.353-1.876-.924-2.446-.539-.538-1.032-.728-1.544-.592-.326.086-.697.493-.964 1.053-.276.583-.367.787-.367.818 0 .014-.05.14-.113.276-.113.253-.77 1.904-.842 2.125a10 10 0 0 1-.208.57c-.354.913-1.336 3.761-1.454 4.204-.018.077-.104.366-.18.638-.082.275-.173.587-.205.691a5 5 0 0 1-.09.308c-.118.339-.548 2.134-.738 3.06-.358 1.755-.498 3.396-.376 4.39.308 2.469 1.232 3.794 2.925 4.187.321.072 1.209.072 1.59 0m-21.868 8.219.518-.166.295-.096c.39-.128.751-.248.803-.271.055-.023.245-.1.43-.172.693-.276 1.762-.787 2.296-1.099.194-.113.362-.203.376-.203.036 0 1.195-.782 1.39-.936.33-.267 1.082-.95 1.48-1.343 1.494-1.487 2.64-2.97 3.826-4.96.244-.41.806-1.55.991-2.02l.084-.206.073-.18.065-.157c.118-.28.335-1.085.44-1.614.158-.81.176-.967.176-1.7 0-.827-.09-1.546-.249-1.998-.081-.235-.09-.307-.045-.457.05-.158.081-.185.376-.298.176-.063.511-.176.747-.244.235-.072.484-.145.547-.167.11-.041.929-.299 2.165-.679.593-.185.787-.28.941-.46.25-.295.213-.638-.113-1.14-.516-.796-1.517-1.55-2.422-1.826-.76-.236-.76-.236-1.734-.24-.63 0-1.073.023-1.309.068-1.485.276-3.472.963-5.324 1.84-.25.117-.57.267-.71.334-.25.113-.644.299-2.586 1.244-.44.212-.933.447-1.096.52-.158.076-.502.235-.76.357a17 17 0 0 1-.48.217c-.01 0-.177.072-.367.158-.52.24-.77.354-.867.394l-.04.016c-.021.001-.17.065-.343.146-.167.077-.452.203-.62.285-.172.077-.321.14-.335.14-.01 0-.131.05-.267.113-.294.136-1.377.552-1.43.552l-.015.002-.06.02c-.096.035-.286.117-.61.262-.249.113-.516.344-.606.534-.123.244-.1.696.054.994.326.629 1.281 1.33 2.232 1.628.716.23 1.128.285 2.06.285.879 0 1.028-.018 1.897-.222.829-.19 2.078-.66 3.46-1.297a8 8 0 0 1 .37-.167c.01 0 .195-.082.413-.181 1.231-.57 1.476-.678 1.498-.656.018.018-.38 1.257-.48 1.479a3 3 0 0 0-.1.262c-.031.113-.085.244-.235.587-.04.09-.072.177-.072.19s-.064.168-.14.34a3 3 0 0 0-.145.334c0 .032-.775 1.573-.901 1.8-.064.103-.163.289-.231.402-.308.547-1.445 2.26-1.576 2.373-.013.014-.09.113-.167.217-.62.832-1.716 1.967-2.5 2.59-1.186.95-2.535 1.628-3.536 1.777-.285.046-.783-.054-1.154-.221-.73-.34-1.585-1.216-2.047-2.111-.158-.303-.475-1.08-.538-1.325-.019-.077-.073-.271-.114-.425-.199-.723-.416-1.885-.552-2.97-.072-.61-.186-2.37-.186-2.966.005-1.062.209-3.305.385-4.177.023-.132.068-.353.095-.498.09-.456.349-1.632.426-1.899l.145-.547.163-.623c.039-.143.125-.44.222-.762l.117-.39c.078-.258.152-.498.202-.654l.052-.157.03-.084c.04-.119.111-.328.183-.535.095-.271.19-.538.212-.592.023-.05.091-.222.15-.38.095-.262.181-.48.285-.71.023-.054.095-.226.163-.38.082-.191.147-.34.21-.481l.095-.209c.115-.245.249-.516.487-.996 1.073-2.147 2.02-3.675 3.958-6.402.366-.515.674-.944.688-.958.018-.01.09-.109.167-.213.082-.103.163-.212.19-.244a5 5 0 0 0 .24-.303c.996-1.306 2.35-2.685 3.518-3.594.444-.343 1-.786 1.236-.985.63-.53.978-.728 1.843-1.045.566-.208 1.372-.18 1.797.06.413.234.571.447.634.85.028.166.014.325-.108 1.251a60 60 0 0 1-.29 1.922c-.023.13-.077.42-.122.642-.041.221-.109.597-.15.832-.036.235-.086.524-.108.637-.277 1.56-.286 2.808-.023 3.825s.598 1.569 1.091 1.8c.104.044.516.243.91.438.359.17.677.316.76.343l.019.005c.027 0 .145.05.253.113.517.294 1.164.37 1.544.176.471-.24.743-.71.933-1.618.068-.326.145-.678.168-.782a59.22 59.22 0 0 0 .81-3.965c.032-.145.081-.412.118-.593.031-.185.117-.6.185-.926.2-.972.267-1.61.267-2.46 0-1.415-.203-2.138-.996-3.544-.176-.317-.738-1.022-1.154-1.452-.557-.583-1.666-1.302-2.436-1.59l-.57-.213a10 10 0 0 0-1.63-.385c-.408-.05-2.368-.095-2.649-.058-.697.085-1.032.144-1.521.266-.317.077-.63.154-.702.168-.072.013-.145.04-.159.063-.013.022-.067.04-.117.04s-.204.055-.34.118c-.14.063-.344.136-.457.167a4 4 0 0 0-.498.19c-.163.073-.435.2-.602.276-.512.23-2.065 1.36-3.138 2.283-.828.71-2.309 2.188-2.74 2.735-1.24 1.574-2.272 2.993-2.575 3.536-.151.274-.263.475-.354.635l-.1.175-.085.148c-.077.131-.14.24-.136.249 0 .008-.1.192-.229.426l-.056.103c-.159.28-.285.515-.285.524a123.159 123.159 0 0 1-1.186 2.107c-.186.326-.336.597-.336.606s-.054.095-.113.194c-.403.642-1.73 3.233-2.1 4.092-.227.529-.277.642-.404.927a29 29 0 0 0-.58 1.46l-.194.521c-.254.694-.482 1.352-.557 1.626-.022.077-.117.398-.212.71a31 31 0 0 0-.453 1.686c-.09.394-.29 1.325-.33 1.565-.028.144-.069.393-.096.547-.403 2.247-.466 5.484-.145 7.74.2 1.406.562 2.794.974 3.748.036.08.113.262.172.402.176.42.507 1.04.792 1.474 1.01 1.55 2.34 2.667 4.03 3.368 2.417 1.004 4.713 1.117 7.176.348m52.09-34.197c-.027-.068.629-2.102 1.014-3.15.095-.263.19-.53.213-.598.045-.135.47-1.324.606-1.709.028-.07.068-.183.112-.308l.09-.256.043-.123c.086-.235.172-.47.195-.52a54.059 54.059 0 0 1 .308-.854c.099-.262.194-.53.217-.597.018-.063.117-.33.213-.592s.203-.57.244-.683c.222-.637.652-.895.969-.579.1.1.14.186.14.303 0 .163-.145.651-.326 1.103-.05.132-.14.416-.199.638a3.4 3.4 0 0 1-.15.475c-.017.04-.099.266-.176.501l-.094.283c-.15.44-.327.929-.39 1.07a3 3 0 0 0-.09.212c-.024.054-.073.176-.114.271a2 2 0 0 0-.077.199c0 .016-.073.184-.17.392l-.043.092a7 7 0 0 0-.213.474c0 .032-.584 1.194-.787 1.565-.13.236-.295.517-.468.803l-.175.285c-.439.71-.875 1.36-.892 1.303m-25.857 3.4c.308-.104.729-.357.969-.579.185-.171.538-.673.538-.764 0-.027.032-.108.073-.185.258-.52.34-1.587.167-2.242-.23-.896-.81-1.624-1.575-1.99a3.3 3.3 0 0 0-.684-.244c-.367-.063-.942-.059-1.218.018-.394.109-.679.285-1.023.624-.276.271-.38.425-.552.782-.317.67-.39.963-.385 1.637 0 .497.018.62.136.972.176.529.43.927.828 1.293.353.32.765.556 1.213.683.38.108 1.196.104 1.513-.005m-13.017 41.028c.23-.014.24-.018.267-.18.014-.091.072-.259.131-.367.073-.14.1-.28.095-.452 0-.136.032-.412.077-.606l.056-.241c.027-.119.051-.226.062-.283.122-.552.634-2.6.724-2.894.259-.832 1.078-2.64 1.576-3.481.122-.203.222-.38.222-.393 0-.064.462-.724.598-.85.09-.086.163-.195.163-.244 0-.095.303-.498.77-1.013.226-.253.28-.294.339-.244.063.054.059.1-.05.402-.063.186-.158.47-.208.624-.046.158-.25.755-.448 1.33-.48 1.396-.557 1.618-.752 2.255-.29.936-.494 1.786-.525 2.197-.01.118-.032.24-.055.272-.063.104-.086 1.433-.027 1.718.15.714.752 1.415 1.21 1.415a.55.55 0 0 0 .262-.118c.244-.208.348-.502.697-2.02.186-.792.493-1.89.738-2.61.208-.614.611-1.69.742-1.993.041-.09.082-.217.091-.276a.6.6 0 0 1 .095-.235c.05-.072.245-.439.435-.818.548-1.09 1.077-1.994 1.49-2.541.352-.475.905-1.035.96-.981.053.054-.123.723-.485 1.813a30 30 0 0 0-.218.687c-.068.235-.144.47-.167.524a7 7 0 0 0-.129.371l-.034.104c-.068.208-.145.425-.168.484-.027.059-.068.158-.095.217a10 10 0 0 0-.525 1.578c-.14.583-.158 1.83-.032 2.17.308.845.86 1.37 1.599 1.505.81.154 1.539-.036 2.454-.642.484-.32 1.308-1.071 1.308-1.193-.004-.027.1-.154.222-.28.127-.127.367-.421.539-.647.167-.226.321-.411.335-.416.027 0 .19.131.534.443.19.167.738.43 1.078.51.33.082 1.322.082 1.666 0 .919-.216 1.797-.682 2.445-1.306.185-.171.434-.366.556-.43.236-.126.453-.37 1.25-1.423.254-.34.485-.638.507-.665q.047-.047.154.082c.168.208 1.023.827 1.386 1.008.565.271.891.312 1.566.19 1.046-.186 1.96-.543 2.59-1.013.756-.56 1.313-1.108 1.997-1.967.244-.303.452-.556.466-.556a.5.5 0 0 1 .122.131c.344.439.684.737 1.028.905.358.176.362.176.978.176.765 0 1.019-.082 1.707-.543.57-.375.828-.633 1.453-1.433.146-.186.282-.356.379-.473l.095-.113a.3.3 0 0 1 .047-.047c.022-.013.213.077.42.204.694.42 1.096.529 1.948.529.878 0 1.453-.136 2.327-.547 1.453-.683 2.535-1.8 3.31-3.405.095-.203.176-.389.176-.416s.018-.086.04-.13c.123-.236.173-.552.173-1.126 0-.71-.032-.805-.376-1.086-.249-.203-.272-.207-.353-.072-.168.267-.235.42-.312.728l-.154.62c-.11.424-.521 1.442-.684 1.681-.154.24-.657.76-.729.76-.023 0-.032-.068-.014-.154a5.3 5.3 0 0 0 .032-1.42 18 18 0 0 0-.059-.427l-.021-.132c-.088-.511-.244-1.124-.812-3.324-.557-2.175-.552-2.157-.489-2.812.032-.294.064-.76.077-1.035.032-.62-.004-.688-.353-.679-.598.018-1.236.534-1.607 1.298-.263.538-.286.633-.349 1.352-.068.764-.163 1.116-.557 2.111a58 58 0 0 0-.493 1.284c-.1.276-.267.723-.372.995-.108.27-.194.52-.194.547a.34.34 0 0 1-.068.144c-.064.082-.073.077-.217-.086-.186-.212-.304-.221-.557-.04-.335.244-.603.65-.73 1.107-.058.217-.05.895.028 1.913.027.343.018.411-.095.66a1.5 1.5 0 0 0-.122.452c0 .145-.037.212-.218.384a7 7 0 0 0-.484.57c-.33.438-.716.895-.842 1.008a.6.6 0 0 1-.245.108c-.28.06-.498-.135-.76-.678-.14-.294-.177-.425-.218-.854-.09-.968.073-2.075.48-3.337.104-.316.136-.42.435-1.492.131-.47.28-.994.33-1.166.046-.167.104-.38.123-.47.018-.09.058-.208.09-.262a.9.9 0 0 0 .09-.308c.019-.113.087-.38.155-.592.412-1.316.461-1.447.606-1.587.154-.145.797-.425 1.576-.678.647-.217.747-.353.525-.728-.135-.232-.294-.318-1.044-.524l-.17-.046a8 8 0 0 1-.375-.104c-.054-.013-.059-.076-.036-.266.172-1.325.022-2.008-.557-2.56-.163-.148-.317-.275-.349-.275s-.131.072-.226.158c-.095.09-.168.186-.168.213s-.063.185-.14.348c-.299.646-.584 1.401-1 2.645l-.05.15-.142.423c-.147.437-.255.749-.261.765-.014.018-.11.013-.209-.014-.163-.04-.271-.018-.874.172-.534.172-.751.267-.96.416-.144.109-.262.217-.262.24 0 .063.276.43.38.501.109.077.48.168 1.01.254.276.04.367.077.367.13 0 .073-.815 3.405-.901 3.685-.023.082-.1.39-.168.688-.072.302-.145.6-.167.664-.095.303-.15.534-.218.977-.131.827-.425 1.568-1.077 2.703l-.147.253c-.078.134-.157.272-.21.367-.34.596-.77 1.094-1.368 1.577a6 6 0 0 0-.53.48c-.122.135-.195.171-.403.199-.14.018-.385.063-.548.095-.258.054-.321.05-.507-.023-.249-.095-.548-.398-.71-.723-.173-.344-.367-1.284-.367-1.773 0-.176-.023-.266-.077-.307-.068-.05-.068-.081-.023-.226l.059-.172.779.027c.869.032 1.177-.018 1.688-.271 1.132-.565 2.318-2.27 2.635-3.789.322-1.541-.045-2.504-1.163-3.024l-.43-.208c-.222-.122-.775-.204-1.196-.186-.375.019-.489.041-.765.177-.615.294-1.49 1.062-2.037 1.786-.403.533-.865 1.365-1.046 1.867-.045.14-.109.28-.131.312-.068.081-.24.741-.24.917a.7.7 0 0 1-.055.258 5 5 0 0 0-.16.555l-.03.119c-.077.316-.158.65-.185.741a8.3 8.3 0 0 0-.258 1.433 2 2 0 0 1-.19.737c-.213.48-.662 1.343-.865 1.664-.091.14-.159.262-.159.276 0 .013-.145.24-.321.506-.186.285-.503.67-.752.918-.444.447-.797.66-1.512.918-.353.126-.494.126-.892-.018-.412-.15-.566-.25-.566-.367q0-.095-.068-.067c-.064.022-.094-.04-.188-.683l-.036-.252c-.033-.232-.072-.519-.12-.874-.05-.348-.104-.633-.122-.633s-.036-.036-.036-.086c0-.072.045-.095.253-.113a3 3 0 0 1 .611.014c.938.104 1.72-.217 2.663-1.09.52-.488.692-.723 1.045-1.437.661-1.348.879-2.021.829-2.564-.1-1.053-.448-1.582-1.327-2.02-1.267-.634-2-.57-3.124.266-1.06.796-1.897 1.949-2.517 3.472-.059.145-.127.303-.145.357-.154.362-.38 1.167-.498 1.755-.081.429-.109.623-.167 1.378-.082 1.027-.227 1.497-.879 2.894-.122.262-.253.551-.294.642-.367.877-.684 1.28-1.132 1.451-.376.14-.607 0-.856-.52-.19-.398-.213-.624-.09-1.058.04-.153.104-.393.145-.538.036-.144.086-.325.108-.402.023-.081.086-.303.14-.502.209-.737.24-.84.381-1.33.081-.27.172-.582.204-.686.027-.104.077-.276.113-.38.05-.158.24-.877.403-1.497.158-.61.167-1.636.022-2.201-.172-.656-.774-1.112-1.28-.968-.526.15-1.794 1.284-2.559 2.288-.217.29-.416.524-.44.533-.026.01-.171-.194-.32-.452-.521-.89-.702-1.049-1.2-1.049-.326 0-.544.113-1.11.566-.624.506-1.086 1.04-1.987 2.292-.109.149-.208.257-.227.244a.6.6 0 0 1-.027-.226c0-.385-.194-.963-.398-1.19a4 4 0 0 1-.222-.28c-.213-.293-.552-.416-.607-.217-.013.068-.05.086-.108.068-.064-.018-.11.01-.154.104-.082.163-.277.72-.417 1.203-.054.194-.122.411-.14.475-.023.063-.077.248-.122.402-.046.158-.132.443-.195.637-.064.195-.109.398-.104.452a.55.55 0 0 1-.095.263.7.7 0 0 0-.1.27c-.005.146-.235.964-.308 1.086-.095.15-.33.981-.321 1.126.009.081-.018.144-.064.162-.054.019-.063.068-.04.19.022.118.009.186-.05.249-.073.081-.136.29-.263.882-.036.158-.136.574-.226.926-.086.353-.15.683-.136.733s0 .122-.032.163c-.081.094-.108 1.003-.036 1.351.136.665.303.986.638 1.216.254.177.517.25.81.231m39.096-13.427c-.259 0-.544-.226-1.001-.805-.548-.696-.607-.913-.39-1.497.068-.18.2-.533.29-.782.666-1.804.924-2.436.965-2.387.018.023.068.24.113.489.045.248.1.538.122.642.05.217.1.474.263 1.329.068.339.14.723.167.854.2.99.2.972.113 1.252-.203.697-.353.905-.642.905m-14.42-.118-.014-.145c-.014-.14.321-1.23.556-1.826.467-1.157 1.237-2.378 1.83-2.889l.19-.163.131.163c.113.131.136.204.136.43 0 .809-.435 2.048-1.11 3.187-.307.515-.733 1.067-.882 1.148a1.8 1.8 0 0 1-.485.082zm-8.033 2.636c-.226 0-.597-.104-.597-.167 0-.014.086-.145.194-.29.209-.285.263-.398.494-1.04.217-.596.335-.863.67-1.519.24-.474.593-1.071.688-1.162.01-.013.082-.104.154-.203.14-.185.733-.615.82-.588.022.01.063.109.086.226.04.235.018.629-.06.86-.026.085-.126.402-.217.7-.425 1.379-.896 2.365-1.372 2.884-.135.154-.56.299-.86.299m-24.163 39.446c.23 0 1.1-.1 1.367-.159.801-.172 1.159-.285 1.698-.529 1.01-.465 2.286-1.519 2.612-2.17.118-.226.254-.398.534-.646a7.5 7.5 0 0 0 .793-.9c.226-.303.443-.583.475-.62.05-.054.09-.017.236.213.221.348.978 1.099 1.15 1.14.072.018.249.099.393.185.412.248.775.32 1.567.325.638.005.992-.036 1.499-.167.271-.072.878-.271 1.045-.348.548-.249.72-.335 1.169-.61.402-.24 1.181-.793 1.458-1.03l.063-.055c.036-.037.154-.132.258-.213.349-.271 1.585-1.646 1.915-2.13.177-.262.476-.687.657-.949.606-.854 1.399-2.35 1.847-3.49.1-.244.217-.533.262-.637a27 27 0 0 0 .336-.81c.018-.05.095-.244.163-.425.072-.185.149-.375.172-.43.135-.325.728-2.088.837-2.49.04-.145.09-.326.113-.403.018-.08.06-.217.082-.311.077-.267.42-1.624.448-1.755.054-.262.326-1.505.371-1.686.023-.104.077-.37.118-.592.122-.66.208-.968.299-1.094.1-.131.294-.24.792-.448.186-.077.399-.172.476-.217.081-.04.357-.19.62-.33.262-.14.53-.29.602-.339a.6.6 0 0 1 .154-.09c.018 0 .118-.055.222-.118.353-.226.52-.307.52-.258 0 .068-.162.38-.307.593-.064.09-.14.248-.172.343-.032.1-.209.488-.39.864-.453.931-.987 2.075-.987 2.111 0 .014-.077.18-.167.38-.09.199-.163.38-.163.407 0 .022-.037.126-.082.226-.04.095-.095.221-.113.271-.145.384-.208.56-.29.81a8 8 0 0 1-.185.483c-.05.108-.114.303-.14.425-.032.127-.128.529-.214.895-.294 1.216-.33 1.51-.335 2.704 0 1.112.005 1.143.222 1.993.172.67.52 1.456.738 1.673.064.068.159.2.213.294.276.52 1.146 1.175 1.825 1.379.498.15 1.485.285 2.082.285.363 0 .526-.032 1.245-.24.182-.054.408-.122.498-.145.526-.149 1.418-.556 1.974-.9.154-.099.345-.194.413-.212.14-.031.624-.416 1.154-.917.34-.317.453-.416.933-.823.24-.204.28-.222.466-.204a.8.8 0 0 1 .326.104c.063.05.154.109.195.136.045.023.271.163.507.307.462.29.688.38.91.38.371 0 .747-.325.919-.805.054-.144.118-.294.145-.334l.016-.026.015-.025c.051-.098.106-.31.467-1.753.765-3.065.996-3.924 1.453-5.39.132-.415.258-.8.28-.854.024-.05.087-.221.137-.38.086-.266.204-.587.294-.804.018-.054.077-.204.122-.335a2 2 0 0 1 .113-.284 3 3 0 0 0 .14-.33c.499-1.284 1.436-3.138 2.328-4.607.335-.552 1.453-2.166 2.173-3.133.195-.263.471-.642.62-.846.39-.542.557-.696.752-.696.122 0 .204.04.326.163.231.23.267.515.127.926-.09.276-.294.841-.33.927-.023.055-.118.308-.218.57-.095.262-.19.52-.213.57l-.167.43c-.073.18-.145.374-.168.424-.022.054-.167.425-.33.832s-.313.782-.335.84c-.05.123-.09.231-.213.534-.045.118-.1.258-.118.312-.262.642-.81 2.27-1.014 2.989a50 50 0 0 0-.507 2.088c-.045.195-.136.764-.245 1.497-.036.226-.058.832-.058 1.374 0 1.185.076 1.61.398 2.306.539 1.166 1.843 1.908 2.703 1.542.498-.217.806-.692 1.055-1.637.176-.678.394-1.483.584-2.161.04-.145.118-.42.172-.62.272-.962.34-1.211.539-1.871a50 50 0 0 1 1.055-3.183c.19-.524.828-2.13 1.01-2.54.176-.403.257-.58.334-.76a85 85 0 0 1 1.2-2.419c.657-1.198 1.286-2.188 2.25-3.535.394-.552.73-1.009.743-1.022l.009-.01.09-.117c.132-.174.384-.506.666-.881.765-1.027.887-1.14 1.1-1.031.385.199.376.312-.104 1.397-.035.08-.139.34-.253.627l-.1.25c-.15.38-.299.755-.335.832-.036.081-.131.325-.213.547-.086.221-.167.447-.19.497-.24.574-.91 2.378-1.25 3.368-.235.678-.52 1.515-.643 1.854-.221.642-.253.741-.366 1.266-.281 1.28-.295 2.577-.041 3.766.312 1.455 1.145 2.428 2.463 2.866.933.312 2.29.317 3.414.01.095-.028.244-.069.33-.091.204-.055.675-.23.928-.344.11-.05.209-.09.222-.09.005 0 .065-.025.155-.065l.152-.068.087-.04c1.553-.709 2.182-1.134 3.102-2.088.271-.285.656-.683.85-.881.195-.2.413-.462.48-.58.064-.117.272-.42.458-.677.856-1.19 1.562-2.654 1.843-3.816.24-.977.045-2.51-.412-3.291-.209-.353-.535-.602-.793-.602-.221 0-.489.123-.67.299-.222.217-.317.407-.923 1.912-.258.624-.526 1.275-.607 1.447-.077.172-.181.416-.231.547-.457 1.157-1.535 3.142-2.15 3.96-.571.764-.639.832-1.092 1.18-.457.348-.647.434-.95.434-.204 0-.317-.031-.58-.176-.177-.1-.362-.23-.412-.298-.045-.064-.172-.412-.276-.769-.154-.538-.19-.728-.19-1.058 0-.646.154-1.523.43-2.468.028-.095.086-.276.159-.496l.118-.354c.145-.433.311-.914.41-1.19.096-.261.245-.677.331-.926a53 53 0 0 1 .92-2.45c.502-1.23 1.082-2.912 1.272-3.69q.38-1.551.262-2.608c-.226-1.94-1.027-3.074-2.263-3.206a3 3 0 0 0-.589.005c-.543.077-1.023.271-1.856.755-.295.167-.544.393-1.336 1.203-1.222 1.247-1.743 1.794-2.21 2.323-.067.082-.38.47-.692.868-.317.398-.58.724-.593.724-.023 0-.236-.466-.276-.62-.114-.388-.535-1.193-.77-1.455-.471-.538-1.11-.896-1.761-.986-.399-.054-1.073.1-1.54.348-.864.466-2.155 1.582-3.305 2.857-.367.407-1.055 1.262-1.643 2.04-.661.876-.693.917-.725.867a6 6 0 0 1-.104-.393c-.09-.384-.14-.588-.326-1.275-.113-.43-.222-.624-.344-.624-.032 0-.109-.068-.167-.153a2 2 0 0 0-.173-.217.27.27 0 0 1-.058-.159c0-.217-.376-.655-.698-.818-.348-.172-.964-.036-1.258.285-.181.19-.426.664-.661 1.275-.109.29-.24.61-.286.714s-.163.38-.258.615c-.1.235-.203.493-.24.57-.036.08-.113.262-.167.402a9 9 0 0 1-.163.407c-.059.13-.213.538-.516 1.374-.068.186-.2.579-.295.877-.047.152-.095.3-.133.416l-.048.148-.027.078c-.022.054-.122.353-.217.665-.1.316-.195.615-.217.664a9 9 0 0 0-.163.498c-.068.226-.14.447-.163.502-.127.293-.145.375-.145.52 0 .149-.05.334-.24.926-.05.145-.145.452-.213.687s-.145.484-.168.547c-.027.064-.086.267-.14.453-.05.18-.19.673-.312 1.09l-.313 1.116c-.05.194-.113.411-.136.475a5 5 0 0 0-.09.307c-.222.805-.779 2.455-1.06 3.142-.38.945-.896 1.944-1.435 2.785-.127.203-.222.38-.204.398s.032.004.032-.027c0-.027.023-.055.05-.055.077 0-.159.28-.24.28-.036.005-.054.014-.04.028.054.059-.91 1.08-1.305 1.383-.597.466-1.06.61-1.548.493-.476-.113-.77-.56-1.037-1.569-.29-1.09-.263-2.536.077-3.797.118-.439.294-1.027.335-1.112.023-.055.118-.321.213-.597.244-.683.905-2.31 1.258-3.084.544-1.193 1.128-2.328 1.925-3.752.701-1.252.837-1.632.837-2.374 0-.605-.086-.958-.362-1.55-.335-.715-.914-1.366-1.639-1.85-.489-.32-.679-.402-1.023-.429-.52-.045-.666.054-1.888 1.28-1.15 1.152-1.766 1.718-2.318 2.129-.49.366-1.716 1.18-1.77 1.18-.032 0-.037-.1-.019-.271.073-.62.086-1.863.037-2.98-.082-1.799-.168-2.17-.57-2.477-.431-.33-1.074-.34-1.712-.027-.308.149-.897.696-1.322 1.22-.684.846-1.386 2.071-1.748 3.043-.1.258-.2.525-.222.583a.8.8 0 0 0-.04.249c0 .081-.05.235-.105.344-.108.208-.131.311-.258 1.103-.045.294-.063.574-.04.732.018.145.036.411.04.597.027.728.566 1.474 1.331 1.83.218.1.417.186.444.186.023 0 .086.045.131.1.113.117.123.479.032.99-.036.199-.082.474-.109.62-.036.23-.158.867-.285 1.518-.063.321-.118.556-.222.972-.05.208-.122.498-.154.642-.317 1.424-1.231 4.087-1.879 5.493-.09.195-.163.366-.163.38-.004.09-1.104 2.242-1.34 2.618-.779 1.23-1.575 2.192-2.25 2.735-.44.348-.906.524-1.272.484-.385-.046-.49-.15-.661-.674-.082-.244-.082-1.732 0-2.324.108-.782.344-1.867.53-2.468.108-.348.439-1.325.588-1.759.09-.262.299-.845.457-1.307.163-.456.33-.944.38-1.09.05-.144.222-.632.38-1.093.608-1.723.888-2.595 1.092-3.391.285-1.13.344-1.528.362-2.536.014-.552.041-.895.073-.936.04-.05.04-.081-.005-.136-.032-.04-.045-.1-.032-.135.028-.073-.058-.457-.18-.814-.327-.945-1.16-1.8-1.861-1.903-.259-.041-.607.072-.892.289-.213.163-.643.768-.815 1.14a30 30 0 0 1-.363.768l-.276.583-.226-.127a5 5 0 0 1-.276-.158c-.123-.086-.793-.43-1.024-.524-.679-.276-1.385-.303-2.16-.086-.407.113-.878.303-.9.357-.014.032 0 .127.022.212.055.19.005.231-.271.231-.53 0-1.019.213-1.703.732a18.7 18.7 0 0 0-3.717 3.73c-.679.9-1.851 2.758-2.603 4.128-.317.579-1.132 2.251-1.263 2.59a3 3 0 0 1-.145.33 1 1 0 0 0-.082.19c-.027.082-.13.358-.226.62a20 20 0 0 0-.498 1.492c-.358 1.266-.475 1.858-.602 3.087-.068.67-.068.891-.023 1.542.032.42.054.895.054 1.054 0 .592.195 1.207.59 1.83.115.187.235.392.29.502l.021.046a.8.8 0 0 0 .186.262c.068.059.168.158.222.226.145.185.747.71.815.71.036 0 .063.018.063.04 0 .06.408.267.738.376.322.108.906.203 1.273.199m-19.872 7.979c.032-.027.1-.05.158-.05.182 0 .517-.171.666-.343.145-.163.245-.42.652-1.673.244-.755.48-1.582.747-2.613.077-.308.163-.62.358-1.33.04-.153.126-.474.185-.71.064-.234.159-.6.218-.808s.158-.57.222-.805l.276-1c.081-.293.126-.447.203-.736.028-.09.086-.294.127-.448.045-.158.1-.357.127-.438.023-.086.059-.226.086-.312l.09-.321c.236-.864.503-1.754.553-1.85.036-.067.163-.506.28-.971.173-.67.245-.873.327-.94.389-.317 1.1-.71 2.567-1.43 2.082-1.021 1.929-.953 2.436-1.07l.738-.173c.28-.067 1.145-.474 2.268-1.071.244-.127.66-.348.928-.484 2.554-1.325 2.667-1.406 2.671-1.899.005-.28-.1-.506-.498-1.098-.294-.439-.548-.692-.937-.945-.978-.624-2.037-.71-3.65-.29-.434.114-2.49.778-2.707.878-.054.022-.321.117-.593.212-.276.095-.615.217-.751.267-.317.113-.344.068-.209-.321l.332-1.028.103-.32c.174-.534.33-1.02.372-1.138l.008-.023c.009-.018.034-.09.07-.197l.097-.294c.05-.15.106-.325.164-.504.276-.85.502-1.505.887-2.6.272-.782.485-1.387.661-1.898.095-.267.19-.53.213-.584.023-.05.1-.266.168-.474s.14-.42.167-.475c.023-.05.118-.312.208-.579l.275-.788.06-.175c.091-.262.245-.691.336-.963.095-.266.19-.529.212-.578.023-.055.1-.258.168-.452.163-.439.457-.877.71-1.054.105-.068.331-.185.503-.257l.143-.062.328-.141.145-.064c1.01-.457 1.367-.556 2.024-.556l.48-.005.344-.24c.19-.135.38-.27.425-.307.082-.072.54-.402 1.476-1.076.517-.366.62-.416 2.137-1.044l1.252-.517.228-.095c.17-.071.285-.12.322-.139.11-.05.213-.095.231-.095.014 0 .1-.031.19-.067.322-.145.48-.208 1.064-.453 1.277-.528 1.748-.98 1.572-1.519-.037-.099-.087-.18-.114-.176s-.077-.05-.113-.117c-.1-.2-.919-1-1.25-1.226-.593-.402-1.177-.61-1.996-.71-.394-.05-.503-.05-.783-.018-.974.109-1.069.127-2.142.425-.448.127-.71.213-1.449.475-.453.167-.706.262-.973.375-.082.032-.335.14-.57.236l-.644.27c-.815.371-1.426.66-2.897 1.38-1.286.624-1.703.818-2.413 1.13-.127.054-.29.127-.372.163a73 73 0 0 1-2.662 1.071 55 55 0 0 1-1.662.574c-.919.303-1.417.484-1.688.602-.064.031-.172.072-.236.1-.199.071-.52.33-.62.492-.14.23-.122.506.063.904.435.936 1.019 1.55 1.866 1.962.774.375.887.714.543 1.56-.023.05-.095.253-.168.447-.067.2-.199.552-.285.787s-.235.638-.33.9-.213.583-.263.714c-.045.131-.145.398-.213.592-.072.195-.145.398-.167.452-.04.09-.245.67-.34.95a4 4 0 0 1-.09.235c-.023.054-.082.226-.136.38-.05.158-.195.565-.313.904l-.262.732-.33.95a272 272 0 0 0-1.712 5.127c-.163.51-.335 1.044-.385 1.189l-.33 1.044c-.136.43-.295.931-.358 1.117-.059.18-.154.492-.213.687-.063.194-.195.565-.294.818-.1.258-.181.506-.181.552 0 .095-.15.587-.548 1.785-.303.932-.349 1.113-.385 1.578a5.5 5.5 0 0 1-.113.75c-.05.209-.145.67-.213 1.018-.055.309-.121.652-.155.82l-.012.062c-.028.13-.105.524-.168.877-.109.592-.145.782-.263 1.374-.017.088-.059.321-.102.575l-.042.257-.045.258-.1.596c-.109.656-.154 1.492-.1 1.953.127 1.113.276 1.578.756 2.306.444.678.937 1.08 1.499 1.23.303.081.801.108.86.045m21.524-11.022c-.321-.656-.44-1.533-.371-2.704.018-.375.05-.95.063-1.28.036-.908.159-2.174.236-2.463.1-.375.262-.913.308-1.022.022-.054.095-.258.167-.452.435-1.23 1.272-3.083 1.988-4.39 1.05-1.93 2.467-4.064 3.323-5.009.14-.154.788-.71.833-.714a.9.9 0 0 0 .326-.109c.208-.113.344-.095.493.063.096.1.154.236.19.416.028.15.082.344.123.43.081.18.095 1.356.023 1.618-.032.113-.032.181.004.226.036.041.023.136-.045.335-.055.15-.15.52-.222.818-.29 1.257-.358 1.555-.403 1.71-.063.212-.28.935-.335 1.093-.018.064-.118.376-.213.687-.308.99-.738 2.27-.878 2.614-.023.05-.118.307-.218.57-.095.257-.19.515-.212.569-.023.05-.177.425-.335.827a26 26 0 0 1-.458 1.085 6 6 0 0 0-.199.469l-.06.135-.035.079c-.127.28-.195.425-.44.976a2.2 2.2 0 0 1-.235.38.9.9 0 0 0-.176.308c-.05.171-.49.85-.928 1.437-.372.493-.97 1.09-1.4 1.393-.552.389-.688.375-.914-.095"/><g fill-rule="nonzero"><path d="M296.544 195.335c-.084.156-.983 1.616-1.99 3.256a176 176 0 0 0-2.516 4.173c-1.127 2.026-.91 1.821-1.941 1.737-.492-.048-3.128-.109-5.86-.145-2.744-.048-5.237-.096-5.537-.132-.311-.025-4.11-.085-8.436-.133s-8.34-.097-8.927-.12c-.6-.013-4.194-.073-7.993-.11-3.81-.048-8.448-.108-10.318-.144s-7.118-.097-11.671-.145l-8.269-.084-.024.748c-.072 2.617-.084 9.154-.024 10.034l.06 1.05 24.063-.073c13.23-.036 24.362-.096 24.745-.12.371-.025 3.152-.085 6.16-.121 5.56-.084 9.322-.157 12.833-.265 1.786-.06 2.11-.037 3.751.301.983.193 1.834.398 1.87.434.047.049-.564.748-1.355 1.58-.79.82-1.773 1.942-2.18 2.473-.72.965-.731.989-.66 1.616.276 2.316 3.284 8.744 6.987 14.931.874 1.472 2.324 3.727 2.528 3.969.084.084 5.872-8.528 9.778-14.546a1649 1649 0 0 1 3.38-5.186c2.205-3.413 2.492-3.932 3.091-5.645.348-1 .408-1.363.408-2.231l-.012-1.025.695-.145a6.6 6.6 0 0 1 2.576-.012c.923.181 1.51.036 1.606-.386.06-.241.096-.18.168.314.048.337.084.953.084 1.363 0 .554.12 1.049.443 1.917.767 1.978.635 1.785 7.214 10.722 5.057 6.863 10.581 14.184 10.701 14.184.084 0 .228-.229 1.438-2.412 1.93-3.486 4.458-8.95 5.668-12.278.611-1.689 1.067-3.353 1.186-4.342l.108-.856-1.09-1.23a49 49 0 0 0-1.93-2.039c-.467-.434-.814-.844-.778-.904s.359-.145.73-.193c.36-.049 1.33-.254 2.145-.459 1.139-.277 1.666-.35 2.205-.301 1.678.169 5.573.313 10.018.386 2.637.036 4.985.096 5.225.12s4.35.085 9.12.133c4.78.048 9.083.108 9.562.133.491.012 3.63.072 6.986.108s7.741.109 9.755.133c2 .036 7.453.108 12.09.145l8.449.084.084-1.194c.048-.651.072-3.293.048-5.874l-.036-4.68h-21.019c-19.161.013-32.007.097-34.787.254-.587.024-3.284.084-5.98.133-2.696.048-5.668.12-6.603.168s-2.06.085-2.492.085l-.803-.012-.48-.88c-.275-.495-.61-1.122-.766-1.4s-.983-1.64-1.846-3.04a174 174 0 0 1-1.725-2.785c-.504-.917-.851-1.339-1.043-1.279-.12.037-.563.097-.97.145-.911.097-4.53 1.025-6.795 1.737-3.595 1.134-5.512 2.002-7.801 3.546-2.145 1.447-3.367 2.593-5.153 4.848-.335.41-.839.88-1.126 1.025-.587.314-.983.302-3.475-.072-.791-.133-1.51-.205-1.594-.169-.072.024-.587-.506-1.139-1.194-3.08-3.799-6.602-6.066-12.306-7.888-2.972-.952-7.322-2.026-8.185-2.026-.096 0-.24.133-.323.29m26.219 12.47c.228.242-.228.326-.815.157a6 6 0 0 0-.755-.168c-.12 0-.216-.06-.216-.109 0-.157 1.618-.036 1.786.12M301.32 130.855h-4.116V125h15.591v5.855h-4.115v16.461h-7.36zm4.115 13.785v-16.16h4.784v-.803H299.78v.803h4.785v16.16zm8.531-19.64h7.127v7.595h3.981V125h7.16v22.316h-7.16v-8.264h-3.981v8.264h-7.127zm4.216 19.64v-8.465h9.837v8.465h.87v-16.963h-.87v7.695h-9.837v-7.695h-.87v16.963zM334.576 125h13.15v5.855h-6.023v2.476h5.922v5.554h-5.922v2.576h6.256v5.855h-13.383zm10.908 19.64v-.803h-6.692v-7.328h6.357v-.803h-6.357v-7.226h6.692v-.803h-7.562v16.963zm-115.128 6.631h7.126v7.595h3.982v-7.595h7.16v22.316h-7.16v-8.264h-3.982v8.264h-7.126zm4.215 19.64v-8.465h9.837v8.465h.87v-16.963h-.87v7.695h-9.837v-7.695h-.87v16.963zm15.893-8.465q0-2.41.92-4.55a11.8 11.8 0 0 1 2.51-3.73 11.8 11.8 0 0 1 3.73-2.51 11.4 11.4 0 0 1 4.55-.92q2.41 0 4.55.92a11.8 11.8 0 0 1 3.73 2.51 11.8 11.8 0 0 1 2.51 3.73q.92 2.14.92 4.55t-.92 4.55a11.8 11.8 0 0 1-2.51 3.73 11.8 11.8 0 0 1-3.73 2.51q-2.14.92-4.55.92t-4.55-.92a11.8 11.8 0 0 1-3.73-2.51 11.8 11.8 0 0 1-2.51-3.73 11.4 11.4 0 0 1-.92-4.55m3.145 0q0 1.773.669 3.33a8.7 8.7 0 0 0 1.84 2.726 8.7 8.7 0 0 0 2.727 1.84 8.3 8.3 0 0 0 3.329.67 8.3 8.3 0 0 0 3.33-.67 8.7 8.7 0 0 0 2.726-1.84 8.7 8.7 0 0 0 1.84-2.727 8.3 8.3 0 0 0 .67-3.329 8.3 8.3 0 0 0-.67-3.329 8.7 8.7 0 0 0-1.84-2.727 8.7 8.7 0 0 0-2.727-1.84 8.3 8.3 0 0 0-3.329-.67 8.3 8.3 0 0 0-3.329.67 8.7 8.7 0 0 0-2.727 1.84 8.7 8.7 0 0 0-1.84 2.727 8.3 8.3 0 0 0-.67 3.329m3.881 0q0 .97.368 1.823.368.855 1.004 1.49t1.489 1.003a4.6 4.6 0 0 0 1.823.368q.97 0 1.823-.368a4.7 4.7 0 0 0 1.49-1.004q.635-.635 1.003-1.489a4.6 4.6 0 0 0 .368-1.823q0-.97-.368-1.823a4.7 4.7 0 0 0-1.004-1.49 4.7 4.7 0 0 0-1.489-1.003 4.6 4.6 0 0 0-1.823-.368q-.97 0-1.823.368a4.7 4.7 0 0 0-1.49 1.004q-.635.636-1.003 1.489a4.6 4.6 0 0 0-.368 1.823m4.684 7.695q-1.606 0-2.994-.602a7.82 7.82 0 0 1-4.099-4.099 7.4 7.4 0 0 1-.602-2.994q0-1.606.602-2.994a7.82 7.82 0 0 1 4.099-4.099 7.4 7.4 0 0 1 2.994-.602q1.606 0 2.994.602a7.82 7.82 0 0 1 4.1 4.099q.6 1.387.601 2.994 0 1.606-.602 2.994a7.82 7.82 0 0 1-4.099 4.1 7.4 7.4 0 0 1-2.994.601m22.684 4.015q-2.107 0-3.814-.535t-2.91-1.606q-1.206-1.07-1.858-2.71t-.652-3.848v-14.186h7.126v13.885q0 1.17.486 1.79.485.62 1.622.62t1.623-.62q.485-.62.485-1.79v-13.885h7.16v14.186q0 2.208-.652 3.848-.653 1.64-1.874 2.71t-2.928 1.606q-1.705.535-3.814.535m0-4.015q-5.018 0-5.018-4.918v-11.275h-.87v11.275q0 2.81 1.522 4.3 1.522 1.488 4.366 1.488t4.383-1.489q1.54-1.488 1.54-4.299v-11.275h-.904v11.275q0 4.918-5.019 4.918m13.718.536q.468.1 1.004.167.467.068.987.117.518.05 1.054.05.936 0 1.823-.217a4.6 4.6 0 0 0 1.59-.72 3.7 3.7 0 0 0 1.12-1.288q.418-.786.418-1.924 0-.97-.485-1.84a8.5 8.5 0 0 0-1.238-1.673 21 21 0 0 0-1.606-1.539 30 30 0 0 1-1.606-1.489 9.2 9.2 0 0 1-1.238-1.505q-.485-.753-.485-1.556 0-1.204.77-1.857.77-.652 2.476-.652a9 9 0 0 1 1.104.067q.268.033.535.033v-.87q-.234 0-.502-.033a6 6 0 0 0-.518-.05 10 10 0 0 0-.586-.017q-1.806 0-2.978.82-1.17.82-1.17 2.56 0 .937.484 1.756a9 9 0 0 0 1.238 1.606 23 23 0 0 0 1.606 1.522q.854.736 1.606 1.489.753.752 1.238 1.556a3.2 3.2 0 0 1 .485 1.672q0 1.606-1.087 2.443-1.088.836-2.994.836-1.138 0-2.075-.167-.501-.067-.97-.167zm-2.81-4.015q.735.234 1.539.368.669.166 1.522.267.853.1 1.723.1 1.539 0 1.539-1.137 0-.435-.468-.886a14 14 0 0 0-1.188-1.004 66 66 0 0 1-1.54-1.221q-.82-.67-1.538-1.54a8 8 0 0 1-1.188-1.957q-.468-1.087-.468-2.492 0-1.573.568-2.777a5.6 5.6 0 0 1 1.573-2.008q1.003-.803 2.359-1.22a9.8 9.8 0 0 1 2.894-.42q.802 0 1.606.085l1.438.15q.736.1 1.439.2v6.257a25 25 0 0 0-.602-.067 25 25 0 0 0-.602-.066 7 7 0 0 0-1.205-.017q-.3.017-.569.083a1.16 1.16 0 0 0-.468.235.58.58 0 0 0-.2.468q0 .268.45.67.453.401 1.105.936.652.536 1.439 1.238a10 10 0 0 1 1.438 1.606 9.4 9.4 0 0 1 1.104 2.04q.452 1.14.452 2.544 0 1.471-.468 2.76a5.9 5.9 0 0 1-1.456 2.242q-.987.953-2.526 1.505t-3.647.552a22 22 0 0 1-4.282-.401 16 16 0 0 1-1.774-.402zm15.658-15.39h13.149v5.854h-6.023v2.476h5.922v5.554h-5.922v2.576h6.257v5.855h-13.383zm10.907 19.639v-.803h-6.692v-7.327h6.357v-.803h-6.357v-7.227h6.692v-.803h-7.562v16.963zm2.643-19.64h7.561l2.577 7.796 2.576-7.796h4.885l2.576 7.796 2.576-7.796h7.562l-7.361 22.316h-5.554l-2.242-6.758-2.241 6.758h-5.554zm10.706 19.64 4.45-14.019 4.45 14.019h.837l5.587-16.963h-.903l-5.086 15.424-4.885-15.424-4.885 15.424-5.085-15.424h-.903l5.587 16.963zm20.108-19.64h7.562v22.316h-7.562zm4.216 19.64v-16.963h-.87v16.963zm11.643-19.64 3.781 9.703 3.814-9.703h7.796l-8.7 22.316h-5.787l-8.7-22.316zm4.15 19.64 6.624-16.963h-.937l-6.056 15.424-6.022-15.424h-.937l6.625 16.963zm11.743-19.64h13.149v5.855h-6.023v2.476h5.922v5.554h-5.922v2.576h6.257v5.855H387.54zm10.907 19.64v-.803h-6.692v-7.327h6.357v-.803h-6.357v-7.227h6.692v-.803h-7.561v16.963zm6.691-.234q.469.1 1.004.167.468.068.987.117.519.05 1.054.05.937 0 1.824-.217a4.6 4.6 0 0 0 1.589-.72 3.7 3.7 0 0 0 1.12-1.288q.42-.786.419-1.924 0-.97-.485-1.84a8.5 8.5 0 0 0-1.238-1.673 21 21 0 0 0-1.606-1.539 30 30 0 0 1-1.606-1.489 9.2 9.2 0 0 1-1.238-1.505q-.486-.753-.485-1.556 0-1.204.77-1.857.769-.652 2.475-.652a9 9 0 0 1 1.104.067q.268.033.536.033v-.87q-.235 0-.502-.033a6 6 0 0 0-.519-.05 10 10 0 0 0-.585-.017q-1.807 0-2.978.82-1.17.82-1.171 2.56 0 .937.485 1.756a9 9 0 0 0 1.238 1.606 23 23 0 0 0 1.606 1.522q.853.736 1.606 1.489.753.752 1.238 1.556a3.2 3.2 0 0 1 .485 1.672q0 1.606-1.087 2.443-1.087.836-2.995.836-1.137 0-2.074-.167-.502-.067-.97-.167zm-2.81-4.015q.736.234 1.54.368.668.166 1.521.267.855.1 1.723.1 1.54 0 1.54-1.137 0-.435-.469-.886a14 14 0 0 0-1.188-1.004q-.72-.552-1.539-1.221-.82-.67-1.539-1.54a8 8 0 0 1-1.187-1.957q-.47-1.087-.469-2.492 0-1.573.569-2.777a5.6 5.6 0 0 1 1.572-2.008q1.005-.803 2.36-1.22a9.8 9.8 0 0 1 2.893-.42q.803 0 1.606.085l1.439.15q.735.1 1.439.2v6.257a25 25 0 0 0-.603-.067 25 25 0 0 0-.602-.066 7 7 0 0 0-1.204-.017q-.3.017-.57.083a1.16 1.16 0 0 0-.468.235.58.58 0 0 0-.2.468q0 .268.451.67.452.401 1.104.936.653.536 1.44 1.238a10 10 0 0 1 1.438 1.606 9.4 9.4 0 0 1 1.104 2.04q.452 1.14.452 2.544 0 1.471-.469 2.76a5.9 5.9 0 0 1-1.455 2.242q-.987.953-2.526 1.505-1.54.552-3.647.552a22 22 0 0 1-4.283-.401 16 16 0 0 1-1.773-.402zM229.531 190.196q-.531-1.326-.531-2.917t.531-2.917a6.7 6.7 0 0 1 1.504-2.291 6.8 6.8 0 0 1 2.306-1.496q1.332-.53 2.937-.53t2.938.53a6.8 6.8 0 0 1 2.306 1.496 6.7 6.7 0 0 1 1.504 2.291q.531 1.326.531 2.917t-.531 2.917a6.7 6.7 0 0 1-1.504 2.291 6.8 6.8 0 0 1-2.306 1.496q-1.332.53-2.938.53-1.605 0-2.937-.53a6.8 6.8 0 0 1-2.306-1.496 6.7 6.7 0 0 1-1.504-2.291m12.238-2.917q0-1.67-.703-2.919a5.06 5.06 0 0 0-1.938-1.953q-1.235-.704-2.85-.704-1.602 0-2.843.704a5.05 5.05 0 0 0-1.944 1.953q-.703 1.25-.703 2.92 0 1.656.703 2.912a5.04 5.04 0 0 0 1.944 1.96q1.24.704 2.843.704 1.615 0 2.85-.704a5.05 5.05 0 0 0 1.938-1.96q.703-1.255.703-2.913m4.37-6.9h8.516v1.612h-7.665l.87-1.412v13.6h-1.722zm.85 5.338h5.036v1.612h-5.035zm16.795-3.726h-4.213v-1.612h10.15v1.612h-4.214v12.188h-1.723zm7.998-1.612h1.723v13.8h-1.723zm.852 4.842h7.996v1.612h-7.996zm7.145-4.842h1.723v13.8h-1.723zm4.956 0h8.517v1.612h-7.665l.871-1.412v13.4l-.871-1.412h7.797v1.612h-8.649zm.852 5.194h5.036v1.613h-5.036zm14.032-5.42h.166l8.66 7.08v2.115l-7.974-6.55.871-.411v11.792h-1.723zm7.997.226h1.723v13.8h-1.723zm4.835 9.817q-.531-1.326-.531-2.917t.531-2.917a6.7 6.7 0 0 1 1.504-2.291 6.8 6.8 0 0 1 2.305-1.496q1.333-.53 2.938-.53t2.938.53a6.8 6.8 0 0 1 2.305 1.496 6.7 6.7 0 0 1 1.504 2.291q.532 1.326.532 2.917t-.532 2.917a6.7 6.7 0 0 1-1.504 2.291 6.8 6.8 0 0 1-2.305 1.496q-1.332.53-2.938.53t-2.938-.53a6.8 6.8 0 0 1-2.305-1.496 6.7 6.7 0 0 1-1.504-2.291m12.238-2.917q0-1.67-.703-2.919a5.06 5.06 0 0 0-1.938-1.953q-1.236-.704-2.85-.704-1.602 0-2.844.704a5.05 5.05 0 0 0-1.943 1.953q-.703 1.25-.703 2.92 0 1.656.703 2.912a5.04 5.04 0 0 0 1.943 1.96q1.242.704 2.844.704 1.614 0 2.85-.704a5.05 5.05 0 0 0 1.938-1.96q.703-1.255.703-2.913m4.369-6.9h4.554q2.175 0 3.352.938 1.176.938 1.177 2.651 0 1.588-1.035 2.645-1.034 1.058-3.206 1.664l-3.99 1.16v-1.666l3.096-.832q1.236-.34 1.974-.731.736-.39 1.06-.922.321-.53.321-1.261 0-.975-.757-1.516-.756-.54-2.127-.54h-3.568l.88-1.39v13.6h-1.731zm5.01 6.86 1.591-.429 3.04 7.37h-1.896zm9.923-5.248h-4.213v-1.612h10.15v1.612h-4.214v12.188h-1.723zm7.998-1.612h1.723v13.8h-1.723zm.852 4.842h7.997v1.612h-7.997zm7.145-4.842h1.723v13.8h-1.723zm8.889 0h4.32q1.551 0 2.636.464t1.667 1.332q.582.868.582 2.11 0 1.236-.547 2.158-.546.922-1.735 1.615t-3.139 1.259l-2.933.862v-1.728l2.655-.766q2.083-.588 2.997-1.374.915-.788.914-1.97 0-1.12-.812-1.746-.81-.627-2.286-.627h-3.468l.872-1.389v13.6h-1.723zm11.514 9.817q-.531-1.326-.532-2.917 0-1.59.532-2.917a6.7 6.7 0 0 1 1.504-2.291 6.8 6.8 0 0 1 2.305-1.496q1.333-.53 2.938-.53t2.938.53a6.8 6.8 0 0 1 2.305 1.496 6.7 6.7 0 0 1 1.504 2.291q.531 1.326.532 2.917 0 1.59-.532 2.917a6.7 6.7 0 0 1-1.504 2.291 6.8 6.8 0 0 1-2.305 1.496q-1.333.53-2.938.53t-2.938-.53a6.8 6.8 0 0 1-2.305-1.496 6.7 6.7 0 0 1-1.504-2.291m12.237-2.917q0-1.67-.702-2.919a5.06 5.06 0 0 0-1.939-1.953q-1.235-.704-2.85-.704-1.602 0-2.843.704a5.05 5.05 0 0 0-1.944 1.953q-.702 1.25-.703 2.92 0 1.656.703 2.912a5.04 5.04 0 0 0 1.944 1.96q1.24.704 2.844.704 1.614 0 2.85-.704a5.05 5.05 0 0 0 1.938-1.96q.702-1.255.702-2.913m4.37-6.9h1.722v13.6l-.871-1.412h7.752v1.612h-8.604zm10.735 0h8.516v1.612h-7.665l.871-1.412v13.4l-.87-1.412h7.796v1.612h-8.648zm.851 5.194h5.036v1.613h-5.036z"/></g><path fill-rule="evenodd" d="M0 162.036v19.037h11.419v-15.388h13.326v15.388h12.057V143H24.745v13.401H11.418V143H0zM65.6 143l.174.453c.1.257 1.984 5.333 4.19 11.286 2.211 5.953 5.283 14.232 6.833 18.402 1.544 4.17 2.828 7.652 2.851 7.75l.03.182H67.547l-.996-2.954-.989-2.954H52.007l-.935 2.871c-.51 1.579-.95 2.908-.981 2.954-.026.04-2.803.07-5.69.083l-.542.002-.656.002-.523.001h-.513l-.745.001h-.474c-1.7-.004-2.952-.017-2.952-.044l.003-.013.018-.055.017-.047c.197-.558 1.302-3.545 6.47-17.456 1.733-4.691 4.158-11.21 5.374-14.496L52.083 143zm18.58 0 1.717 9.579 1.726 9.578.479.023.486.023.084-.265c.046-.143 1.087-3.92 2.319-8.392 1.224-4.465 2.38-8.65 2.554-9.3.183-.642.327-1.186.327-1.208 0-.018 1.647-.031 3.93-.036l.537-.001h.138l7.17-.001.427 1.526c.21.77 1.195 4.322 2.257 8.158l.187.68.095.34c1.163 4.215 2.166 7.849 2.235 8.076l.114.415h.38c.213 0 .433-.045.502-.098.09-.076.471-2.047 1.383-7.124l1.604-8.959c.198-1.065.396-2.183.449-2.478l.091-.536h11.411l-.046.257c-.022.143-.28 1.314-.562 2.598-.463 2.082-1.814 8.2-3.233 14.633l-.225 1.018-.112.51-.225 1.02-2.523 11.45c-.684 3.12-1.322 5.877-1.414 6.134l-.167.453-5.998-.023-5.99-.015-3.232-11.8c-1.778-6.489-3.253-11.8-3.276-11.8l-.009.006c-.056.07-.306 1.007-3.39 12.285q-.046.175-.094.35l-.19.7-.19.697c-.915 3.365-1.783 6.542-2.05 7.515l-.57 2.085h-8.065l-.124-.001h-.583c-3.09-.007-3.33-.031-3.36-.135-.023-.076-.48-2.085-1.004-4.465l-.76-3.41-.186-.837-1.578-7.099c-.859-3.86-2.014-9.035-2.562-11.497-1.992-8.96-2.341-10.546-2.341-10.584 0-.026 1.99-.041 4.608-.044zm49.406 0 6.85.023 6.85.015 1.101 2.938c.49 1.296 1.784 4.76 3.135 8.371l.28.749.14.374.28.748.278.742c1.658 4.427 3.626 9.677 4.372 11.656l.314.84 1.137 3.04.254.68c1.989 5.32 2.856 7.652 2.886 7.76l.003.014c.002.074-.21.103-1.909.109l-.485.001h-.978l-3.001-.01-6.41-.015-.843-2.954-.844-2.96-6.743.022-6.735.022-.745 2.297c-.411 1.269-.837 2.599-.95 2.954l-.206.657h-12.202l.046-.22c.06-.271.38-1.148 1.673-4.577a4908 4908 0 0 1 3.187-8.517l.233-.624.966-2.576.308-.824 3.166-8.444.252-.672c1.72-4.58 3.345-8.93 3.686-9.851zm-75.11 10.115c-1.17 3.837-1.634 5.363-2.159 7.093a651 651 0 0 1-1.285 4.223c-.372 1.201-.669 2.228-.669 2.281 0 .057 1.1.08 3.793.083h1.19c3.004-.002 3.804-.027 3.775-.098l-.019-.053c-.113-.337-.672-2.136-2.596-8.377-.966-3.143-1.771-5.741-1.787-5.787-.015-.045-.121.242-.243.635m81.99.302c-.015-.007-1.004 2.9-2.205 6.459-1.2 3.565-2.204 6.527-2.22 6.58-.027.075.7.094 3.384.097h1.732c2.685-.003 3.411-.022 3.384-.097-.023-.053-.297-.937-.616-1.965-.32-1.02-1.224-3.928-2.007-6.458-.79-2.523-1.444-4.6-1.452-4.616m23.255 8.62v19.036l5.96-.023 5.968-.015.023-19.021.023-19.014H163.72zm15.805 0v19.036l6.082-.023c3.345-.007 6.082-.045 6.066-.075-.007-.03-.015-8.59-.015-19.022V143h-12.133zm-18.96 21.498c-6.272.053-7.777.106-10.3.355-4.083.408-7.04 1.277-8.759 2.569-1.406 1.065-2.683 2.87-3.413 4.85-.532 1.42-.927 3.565-1.133 6.066-.167 2.047-.137 9.895.046 11.852.486 5.303 1.596 8.106 4.044 10.213 2.615 2.244 4.934 3.044 9.936 3.452 1.81.144 20.785.144 23.065 0 6.804-.438 10.552-1.314 13.335-3.12.897-.581 2.372-2.062 2.987-3.006 1.582-2.402 2.296-5.175 2.57-9.994.114-2.1.046-7.32-.13-9.193-.493-5.319-1.786-8.454-4.477-10.878-1.923-1.738-4.88-2.607-10.134-2.977-1.748-.12-7.7-.28-9.898-.257-.7.008-4.181.038-7.739.068m13.768 13.243c3.079.083 3.649.15 4.303.529.805.468 1.558 1.495 1.877 2.56.259.862.365 1.912.365 3.611 0 3.007-.387 4.435-1.497 5.553-.882.876-1.346 1.034-3.368 1.148-1.832.106-20.937.106-22.716 0-2.03-.114-2.592-.31-3.443-1.209-.494-.514-.768-.982-1.019-1.7-.342-1.012-.403-1.586-.403-3.867.008-1.896.023-2.236.175-2.939.433-1.949 1.574-3.24 3.14-3.535.28-.053 1.535-.121 2.79-.151 3.481-.083 16.603-.083 19.796 0M0 203.244v19.308h11.814V206.69H26.98v-7.69H11.813v-6.588h17.804v-8.483H0zm30.766-19.218c-.015.053-.023 8.74-.015 19.294l.023 19.195 6.165.022 6.166.023v-38.632h-6.15c-4.843 0-6.158.023-6.189.098m13.616-.068c0 .03 5.078 13.417 10.453 27.573.608 1.594 1.794 4.721 2.645 6.957l1.544 4.072 6.667-.023 6.66-.022.182-.476c.098-.257.927-2.493 1.847-4.956.92-2.462 3.938-10.553 6.713-17.979l5.04-13.491v-1.685H74.326l-.083.257c-.045.144-.707 2.297-1.475 4.782-1.33 4.328-3.596 11.67-5.07 16.453-.388 1.246-.966 3.127-1.293 4.185-.585 1.918-.593 1.926-.684 1.631-.06-.166-.874-2.764-1.81-5.771-.942-3.014-2.44-7.796-3.329-10.629-.89-2.84-2.015-6.443-2.509-8.015l-.89-2.855-6.4-.015c-3.52-.015-6.401-.008-6.401.007m43.385.106c-.03.076-.197.521-.364.982l-.32.846.023 18.311.023 18.312 16.459.022 16.466.023v-8.967H99.141v-7.456h18.838v-7.856H99.14v-5.945h20.36v-8.408h-15.844c-15.007 0-15.835.008-15.889.136m33.329 18.145v3.928l6.439-.022 6.446-.015v-7.774l-6.446-.022-6.44-.023zM519.881 201.103c.248-.246.544.124.618.74.1.91 0 1.157-.395 1.157-.272 0-.396-.246-.396-.862 0-.468.074-.936.173-1.035m-3.09.69c.173-1.158.84-1.133.84.05 0 .886-.395 1.403-.766 1.01-.124-.124-.148-.617-.074-1.06m6.032-3.177c.594 0 .792.566.866 2.71.05 1.403 0 1.575-.495 1.625-.494.074-.568-.099-.84-1.921-.149-1.109-.223-2.094-.149-2.217.075-.099.346-.197.618-.197m-8.307 2.832c0 .591-.124 1.035-.272 1.035-.42 0-.544-.616-.272-1.355.371-.985.544-.862.544.32m11.324-1.034c.395 0 .94 1.502.593 1.7-.395.246-.692-.075-.816-.912-.074-.493 0-.788.223-.788m-14.118.172c-.148.887-.296 1.133-.692 1.133-.47 0-.494-.221-.148-1.157.296-.764.964-.74.84.024m16.961-.936c.42 0 .99 1.183.742 1.577-.247.418-.618.246-.618-.271 0-.271-.124-.567-.272-.665a.5.5 0 0 1-.248-.394c0-.148.174-.247.396-.247m-18.667-2.463c.074.222-.024.764-.247 1.232-.198.468-.52 1.231-.692 1.675-.198.517-.52.837-.816.837-.717 0-.84-.468-.42-1.502.222-.518.568-1.33.741-1.774.371-.887 1.162-1.157 1.434-.468m22.079 1.872c.42.887.42 1.108-.025 1.108-.321 0-.94-1.034-.94-1.551 0-.542.668-.222.965.443m-25.614-1.28c0 .492-.693 1.6-.99 1.6-.395.025-.395-.295-.024-1.133.272-.615 1.014-.936 1.014-.468m28.26-.1c.519.961.222 1.405-.446.666-.32-.32-.568-.764-.568-.936 0-.567.667-.394 1.014.27m-30.856-1.255c0 .542-.94 1.502-1.286 1.305-.148-.098-.099-.443.173-.936.47-.813 1.113-1.034 1.113-.37m32.883-1.552c1.211 1.527 1.36 2.044.643 2.414-.396.221-.668 0-1.706-1.429-.964-1.355-1.162-1.749-.915-2.044.494-.591.816-.419 1.978 1.059m-12.115-44.409c4.4 1.06 7.763 2.783 10.706 5.493 3.164 2.906 5.587 6.502 6.552 9.729l.057.195.119.395c.197.658.39 1.287.466 1.553.569 1.7.767 7.98.297 9.729l-.198.763-17.504.074c-9.643.05-17.654.123-17.827.173-.197.073-.321.221-.321.369 0 .123.124.394.321.591.173.197.544.788.816 1.33s1.261 1.675 2.151 2.512c2.621 2.439 4.698 3.326 8.407 3.523 1.458.098 3.04.024 3.856-.148 1.88-.394 4.278-1.577 5.81-2.857l1.262-1.06h6.1c3.08.007 5.545.103 5.545.222 0 .345-2.102 3.695-3.09 4.951-3.66 4.63-9.075 7.808-15.058 8.842-1.978.345-8.01.148-8.43-.27-.15-.173-.495-.272-.792-.296-.742 0-3.264-.813-3.264-1.06 0-.122-.197-.22-.42-.22-1.236 0-5.538-2.858-7.615-5.075-.865-.936-1.582-1.749-1.582-1.798 0-.074-.297-.443-.643-.837-.544-.567-1.756-2.808-3.016-5.616-.594-1.305-1.31-4.877-1.46-7.241-.172-3.005.545-7.291 1.509-9.237.124-.246.396-.911.593-1.478.52-1.502 3.041-5.147 4.747-6.847 1.78-1.749 4.649-3.842 6.33-4.581.618-.271 1.384-.616 1.681-.74.47-.22 2.151-.713 4.277-1.28 1.187-.32 8.11-.172 9.618.197m-23.34 43.744c.445 0 .198.714-.395 1.28-.84.789-1.212.198-.396-.64.322-.345.692-.64.791-.64M498.173 143v5.69c-.024 4.04.075 5.862.297 6.207.272.443.223.615-.321 1.231-1.41 1.527-3.61 5.074-3.61 5.764 0 .147.396.468.89.69 1.014.492 1.063.566.569 1.23-.272.395-.445.42-.89.173-.866-.468-1.533-.345-1.706.296-.065.28-.32 1.239-.58 2.233l-.113.427c-.346 1.355-.593 3.276-.692 5.616l-.173 3.546h1.212c1.112 0 1.211.074 1.211.665 0 .567-.124.64-.89.64-.52 0-.94.149-1.014.37-.173.444.618 3.695 1.36 5.518.717 1.822 2.225 4.704 2.868 5.492.495.64.495.64 1.31.173 1.434-.838 2.2.147.915 1.157-.47.37-.667.764-.643 1.355 0 1.01.198 1.305.643.911.668-.542.668.296.025 1.084-.37.443-.692 1.108-.692 1.478v.69l-6.033-.05c-3.313-.024-6.181-.05-6.379-.074-.321 0-.346-2.118-.198-14.162.052-3.808.078-6.884.08-9.165v-.532c-.003-2.842-.048-4.29-.13-4.195a1 1 0 0 0-.052.071l-.056.088c-.622 1.018-3.531 6.618-7.68 14.792-1.112 2.192-2.051 3.72-2.175 3.596-.247-.271-3.412-6.38-7.022-13.547-1.31-2.66-2.521-4.852-2.67-4.852-.129-.018-.19 2.634-.191 7.826v.723q.002 2.404.018 5.466l.074 14.014-6.18-.049c-3.189-.023-5.917-.068-6.33-.073h-.05c-.088 0-.145-8.26-.167-18.217l-.001-.822c-.003-1.376-.005-2.78-.006-4.197v-.85l-.001-.214v-5.682l.001-1.289.001-.853c.013-10.766.069-20.113.173-20.217.1-.098 2.695-.147 5.761-.098l5.613.074 2.645 5.172c1.459 2.833 3.906 7.636 5.44 10.665 1.532 3.03 2.892 5.493 3.04 5.493.173-.025 1.064-1.552 2.003-3.424.817-1.638 2.339-4.619 3.896-7.64l.467-.905.377-.728c1.5-2.9 2.917-5.615 3.642-6.958l.89-1.675 5.612-.074zm84.631 0v13.202l-5.785.05-5.786.073-.123 19.606-.124 19.581-6.23.05-6.23.024-.075-19.68-.074-19.704h-11.398V143zm-43.44 50.936c.643.542.791 1.06.297 1.06-.445 0-1.261-.79-1.261-1.208 0-.468.272-.419.964.148m2.15-2.044c.57.566.668 1.034.273 1.034-.346 0-1.31-.96-1.31-1.305 0-.394.47-.296 1.038.27m1.707-2.439c.544.37.89 1.133.494 1.133-.346 0-1.656-1.133-1.533-1.33.198-.295.297-.27 1.039.197m2.398-2.044c.05.024.025.172-.074.32-.099.197-.42.148-.94-.123-.741-.37-.914-.64-.593-.96.124-.124.717.147 1.607.763m-2.126-4.581c.42 0 3.733 1.477 3.733 1.65 0 .468-.37.936-.741.936-.223 0-.89-.222-1.46-.517-.568-.271-1.186-.493-1.334-.493-.47-.025-.89-.69-.717-1.133.074-.246.321-.443.519-.443m3.684-1.38c.964.468.865.96-.173.715-.866-.197-1.187-.493-.965-.863.223-.344.174-.344 1.138.148m.445-2.955c.544.049 1.038.221 1.112.418.075.247-.148.32-.865.271-.544-.049-1.038-.246-1.113-.443-.074-.246.149-.32.866-.246m.519-3.153c.742 0 .915.098.915.517s-.173.517-.915.517-.915-.098-.915-.517.173-.517.915-.517m.124-2.857c.741 0 1.038.123.964.345-.05.172-.495.32-.964.32-.47 0-.915-.148-.965-.32-.074-.222.223-.345.965-.345m.989-2.685c.074.468-.1.591-1.039.714-.618.074-1.607.222-2.176.32-.89.148-1.112.099-1.236-.27-.296-.74.297-1.133 1.855-1.232 2.299-.172 2.497-.123 2.596.468m-33.304-9.458c-.148.098-.643.27-1.088.37-1.162.246-3.684 1.92-5.192 3.448-1.162 1.182-2.942 4.039-2.942 4.729 0 .146.994.223 3.778.23h.94c1.835-.004 4.299-.032 7.545-.083 6.504-.07 12.067-.142 12.685-.147h.048c.717-.025.544-.838-.544-2.488-1.879-2.857-4.351-4.803-7.442-5.837-2.027-.69-7.021-.838-7.788-.222m32.315 6.453c0 .443-.173.517-.94.517-.618 0-.89-.098-.816-.32.074-.172.297-.32.52-.32.222 0 .519-.099.618-.197.346-.345.618-.197.618.32m-.767-3.005c0 .394-1.236 1.035-1.582.813-.42-.271-.272-.64.346-.887.84-.345 1.236-.32 1.236.074m-1.706-2.192c-.865.394-1.162.37-1.162-.074 0-.197.322-.468.717-.616 1.187-.394 1.583.173.445.69m-1.236-3.571c.618-.025.346.64-.445 1.083-.989.542-1.385.074-.495-.615.347-.247.767-.468.94-.468m-1.434-2.685c.272.246.47.517.47.616s-.717.714-1.558 1.404c-1.286.985-1.656 1.157-1.953.91-.544-.442-.47-.91.198-1.354.321-.221.989-.739 1.483-1.182.84-.739.94-.764 1.36-.394m-1.978-1.97c.247.418-.865 1.354-1.36 1.157-.37-.123-.346-.246.173-.788.668-.714.915-.788 1.187-.37m-41.685-1.577c.47 0 1.335 1.084 1.187 1.478-.124.32-.247.296-.791-.099-.346-.246-.643-.665-.643-.91 0-.247.099-.469.247-.469m2.596-2.315c.371 0 2.374 3.153 2.25 3.497-.321.789-1.113.345-2.2-1.231-1.014-1.478-1.064-1.65-.643-1.946.222-.172.519-.32.593-.32m36.641 1.552c.445 0 .198.69-.395 1.256-.816.788-1.138.27-.371-.591.297-.37.667-.665.766-.665m-2.101-1.528c0 .148-.223.567-.495.887-.667.862-1.236.32-.618-.542.47-.64 1.113-.837 1.113-.345m-5.242-3.3c.223.27.124.764-.37 1.995-.792 1.97-.915 2.118-1.484 1.897-.618-.222-.544-.838.247-2.66.717-1.601 1.088-1.872 1.607-1.232m-26.331 2.635c.396.616.37 1.158-.05 1.158-.271 0-1.087-1.478-.914-1.65.296-.296.544-.173.964.492m28.779-1.206c.346.344-.247 1.576-.766 1.576-.445 0-.445-.099.074-1.06.296-.59.47-.714.692-.516m-25.911.221c.124.444.074.591-.247.591-.445 0-1.014-1.182-.767-1.6.223-.32.767.221 1.014 1.01m8.06-3.818c.668 0 .915.789.915 2.882 0 1.158-.074 1.256-.618 1.256-.569 0-.618-.147-.866-1.945-.123-1.06-.173-1.995-.123-2.07.074-.049.37-.123.692-.123m-6.033 1.552c.223 0 .445.345.544.838.272 1.404-.395 1.305-.766-.124-.124-.517-.074-.714.222-.714m18.222-.345c.495.197.495.197 0 1.158-.222.419-.52.69-.643.616-.321-.197-.321-.444 0-1.256.149-.444.371-.616.643-.518m-15.329-.418c.371 0 .84 1.453.569 1.748-.247.222-.594-.221-.791-1.034-.124-.517-.05-.714.222-.714m12.51-.123c.248.59-.123 1.674-.543 1.674s-.495-.517-.223-1.477c.173-.665.544-.764.767-.197m-3.411-.666c.321 0 .42.222.346.986-.05.542-.198.96-.346.96-.149 0-.297-.418-.346-.96-.05-.764.024-.986.346-.986m-2.943 0c.371 0 .495.222.495.912s-.124.911-.47.911-.445-.222-.47-.911c-.024-.714.075-.912.445-.912m66.805 7.587c-.074.172-.099 10.123-.05 22.118l.05 21.798h6.181l6.157.025.024-21.823c0-11.995 0-21.946-.024-22.118 0-.247-1.41-.345-6.107-.345-4.648 0-6.132.098-6.23.345m15.898-.173c-.099.099-.173 10.05-.173 22.119v21.945l5.365.05c2.967 0 5.81.049 6.305.049l.914.024v-8.522c0-4.704-.098-9.95-.197-11.65-.198-3.547-.025-4.187.816-3.005.296.419.544.838.544.936s.519.985 1.162 1.97c.642.986 1.186 1.848 1.186 1.897 0 .05.445.838 1.014 1.749 2.027 3.226 4.03 6.576 4.574 7.561.643 1.183 1.014 1.404 1.236.74.149-.493.594-1.208 2.77-4.73.741-1.207 1.582-2.586 1.854-3.079.296-.468.94-1.527 1.458-2.364.544-.838 1.484-2.34 2.127-3.35.618-1.01 1.236-1.896 1.384-1.995.173-.098.198 1.035.074 3.177-.148 2.488-.272 18.35-.173 20.42.025.147 2.275.245 6.33.22l6.28-.024.074-21.7c.025-11.92 0-21.871-.074-22.142-.149-.419-.618-.468-5.563-.468-5.39 0-6.23.098-6.23.591 0 .123-.372.764-.792 1.404s-.766 1.182-.766 1.256c0 .05-.619 1.06-1.336 2.241-2.324 3.744-4.895 8.03-4.895 8.129 0 .049-.667 1.108-1.459 2.34l-1.434 2.216-.593-.862c-.495-.714-1.706-2.685-3.016-4.901-.124-.197-1.41-2.365-2.868-4.779-1.46-2.413-2.893-4.803-3.165-5.295-.297-.493-.742-1.232-1.014-1.626l-.519-.714h-5.514c-3.04 0-5.612.098-5.686.172m47.965.173c-.074.172-.099 10.123-.05 22.118l.05 21.823 13.648.024h13.623v-8.99l-7.343-.074-7.319-.074v-8.793h13.5v-9.039h-6.75c-4.327 0-6.775-.099-6.8-.271-.024-.296-.024-.246 0-4.458l.025-3.424 6.874.099c4.796.049 6.997 0 7.392-.197.544-.296.544-.444.495-4.631l-.074-4.31-13.574-.074c-10.73-.05-13.598 0-13.697.27m-90.455 55.265-.264 8.91q0 .241-.033.693-.033.45-.066.979t-.077.946h.154q.11-.396.242-.836a129 129 0 0 1 .528-1.716l3.124-8.976h2.376l-.22 8.932q0 .418-.033.869l-.066.88q-.033.429-.077.847h.154q.11-.374.231-.759.12-.385.253-.792.132-.406.242-.759l3.168-9.218h2.09l-5.5 15.114h-2.332l.198-9.768q.022-.285.033-.583.01-.297.033-.605l.044-.572h-.132a9 9 0 0 1-.154.539q-.089.275-.165.55a5 5 0 0 1-.187.539l-3.498 9.9h-2.288l.022-15.114zm15.444 0L571.961 222h-2.178l2.662-15.114zm10.428 0-.33 1.936h-3.366L579.023 222h-2.156l2.31-13.178h-3.366l.33-1.936zm3.674 0-1.144 6.49h4.048l1.144-6.49h2.178L592.29 222h-2.178l1.166-6.71h-4.026l-1.188 6.71h-2.178l2.662-15.114zm18.414 0-.33 1.914h-4.752l-.836 4.774h4.048l-.352 1.936h-4.048l-1.144 6.49h-2.178l2.662-15.114zm5.786 0q1.409 0 2.222.418.814.418 1.166 1.133t.352 1.683q0 1.122-.297 2.178a6.2 6.2 0 0 1-.89 1.903 4.2 4.2 0 0 1-1.519 1.331l1.276 6.468h-2.222l-1.122-5.896h-2.596L608.24 222h-2.178l2.662-15.114zm11.572 0 .836 15.114h-2.266l-.11-3.806h-3.674L617.765 222h-2.244l6.226-15.114zm-1.694 2.376h-.154q-.11.308-.242.715t-.275.803-.253.66l-1.936 4.884h2.992l-.11-4.884q0-.176-.01-.44a14 14 0 0 1-.012-.572zm-10.384-.462h-1.848l-.968 5.412h1.958q.902 0 1.53-.462.625-.462.945-1.309t.32-1.991q0-.836-.43-1.243-.429-.407-1.507-.407m14.19 13.2 2.662-15.114h2.068l2.178 8.778q.022.11.077.352t.1.473q.043.23.043.385h.11q.045-.308.121-.748.077-.44.143-.77l1.474-8.47h2.134L635.057 222h-1.936l-2.244-8.866a6 6 0 0 1-.143-.649l-.12-.671h-.089q-.066.353-.165.924t-.187 1.056L628.721 222zm15.466.264q-2.046 0-3.036-1.177t-.99-3.575q0-.704.077-1.496t.231-1.694q.462-2.618 1.32-4.323t2.112-2.541 2.904-.836q.99 0 1.716.242t1.232.715.748 1.177q.242.705.242 1.672 0 .396-.033.825t-.12.913h-2.135q.066-.396.11-.781t.044-.693q0-.528-.11-.924a1.7 1.7 0 0 0-.352-.671 1.5 1.5 0 0 0-.627-.418q-.385-.143-.957-.143-.682 0-1.265.297t-1.045.935-.814 1.628-.616 2.376a41 41 0 0 0-.275 1.496 19 19 0 0 0-.209 1.76 7 7 0 0 0-.022.528q0 .968.242 1.595t.715.924 1.177.297q1.035 0 1.672-.473.638-.473 1.034-1.375.397-.902.616-2.222l.066-.44h-2.86l.308-1.76h4.906L646.695 222h-1.232l.066-1.562q-.375.594-.913 1.001-.54.407-1.177.616-.638.21-1.364.209m17.248-15.378-.33 1.914h-5.61l-.814 4.532h4.906l-.308 1.936h-4.906l-.858 4.818h5.698l-.33 1.914h-7.898l2.662-15.114zm4.048 0-2.31 13.2h4.598l-.308 1.914h-6.798l2.64-15.114zm2.31 15.114 6.226-15.114h2.75l.836 15.114h-2.266l-.11-3.806h-3.674L667.925 222zm4.422-5.676h2.992l-.11-4.884q0-.176-.01-.44a14 14 0 0 1-.012-.572v-1.166h-.154q-.11.308-.242.715t-.275.803-.253.66zM819.556 149.853c-.136.444-.17 1.4-.102 2.048.102 1.126.205 1.228 1.436 1.33l1.368.103.069 8.122.102 8.157h3.968l.102-8.157.069-8.122 1.368-.102 1.334-.103.102-2.081.103-2.048h-4.857c-4.822 0-4.856 0-5.062.853m15.083-.034c-.102.444-.137 5.05-.102 10.272l.102 9.522h3.968l.102-3.857.103-3.856h2.12v7.883h3.968V149h-3.934l-.102 4.402-.103 4.369h-.889c-.923 0-.923 0-.992-3.584-.137-5.221-.137-5.187-2.257-5.187-1.54 0-1.813.102-1.984.82m16.007 9.59v10.409l4.206-.103 4.207-.102v-3.583l-2.052-.103-2.052-.136v-4.607h3.591v-3.96h-3.591v-3.89l2.052-.102c2.052-.103 2.052-.103 2.189-1.331.068-.649 0-1.604-.103-2.048-.205-.819-.308-.853-4.343-.853h-4.104zm-143.202 19.213c-.377.137-.445 3.686-.445 16.074 0 8.737.103 15.938.24 16.006.17.068.615.75.991 1.502.41.785 1.368 1.808 2.155 2.32s1.505 1.058 1.573 1.229c.069.136 1.403.239 2.942.239 2.975.034 2.838.068 5.574-2.253 2.292-1.945 2.326-2.252 2.224-19.589l-.103-15.596h-6.088l-.17 15.596-.206 15.596-.924.103c-.513.068-1.094-.137-1.333-.41-.308-.34-.445-4.846-.513-15.664l-.103-15.22-2.668-.07c-1.505-.033-2.907.035-3.146.137m28.148 0c-.137.137-.24 8.327-.24 18.224 0 20.34-.308 18.43 3.112 18.43 3.523 0 3.352.443 3.386-8.874l.035-8.122 2.462 7.508c1.368 4.163 2.497 7.712 2.497 7.951 0 .785 1.573 1.57 3.112 1.57 2.77 0 2.634 1.024 2.634-18.633 0-14.607-.069-17.542-.513-17.917-.308-.239-1.505-.375-3.147-.307l-2.633.102-.171 8.259-.171 8.225-2.463-7.508c-1.368-4.164-2.702-7.884-2.975-8.327-.445-.683-.821-.82-2.6-.82-1.163 0-2.189.103-2.325.24m29.79.069c-.104.17.786 4.266 1.983 9.112l2.189 8.839-1.847 7.78c-1.06 4.3-2.052 8.294-2.223 8.874-.171.546-.308 1.16-.308 1.33s1.334.308 3.01.308c2.565 0 3.044-.103 3.215-.614.102-.342.547-2.56.957-4.949.445-2.355.924-4.436 1.095-4.607.136-.17.444.648.684 1.809.205 1.16.684 3.447.992 5.119l.615 3.071 2.976.103c2.12.068 2.975-.035 2.975-.342 0-.443-2.873-12.388-3.796-15.698l-.513-1.98 2.155-8.736c1.197-4.812 2.086-8.942 1.983-9.215-.137-.375-.855-.511-2.633-.511-1.334 0-2.6.136-2.805.273-.342.238-.684 1.74-1.95 8.088-.239 1.16-.547 1.98-.718 1.808-.17-.17-.65-2.184-1.06-4.436-1.128-6.006-.923-5.733-4.104-5.733-1.505 0-2.77.136-2.873.307m29.447-.069c-.103.137-.206 8.327-.206 18.224 0 16.108.035 18.02.548 18.224.82.307 4.548.273 5.096-.068.307-.205.444-2.252.513-7.44l.102-7.132 2.155-.205c3.386-.341 5.335-1.672 6.464-4.368.787-1.877.787-11.194 0-13.105-1.47-3.447-3.454-4.334-9.713-4.368-2.6 0-4.823.102-4.96.238m8.071 5.495c.616.341.684.819.684 4.983 0 4.948-.205 5.596-1.88 5.357-.788-.136-.822-.238-.924-4.607-.137-6.108.102-6.791 2.12-5.733m19.598-5.187c-.41 1.023-.274 34.912.136 35.663.342.648.787.682 6.26.716 3.214 0 6.121-.102 6.43-.239.478-.17.58-.819.58-3.208v-3.003l-3.488-.102-3.523-.103-.17-15.05-.172-15.05-2.941-.102c-2.394-.068-2.941 0-3.112.478m28.353.068c-.205.648-.548 3.344-1.471 11.91-1.163 10.614-1.984 17.883-2.394 20.75-.479 3.549-.41 3.617 2.668 3.617 2.907.034 3.488-.375 3.488-2.218 0-.853.103-2.116.24-2.867.205-1.297.239-1.365 1.744-1.365h1.539l.24 2.97c.17 1.637.444 3.07.683 3.207.206.17 1.471.273 2.77.273 2.634.034 3.352-.41 3.045-1.843-.171-.716-2.36-19.828-3.489-30.407-.205-2.048-.547-3.959-.752-4.198-.24-.307-1.574-.443-4.241-.443-3.386 0-3.9.068-4.07.614m4.993 18.463.274 5.29h-.924c-.513 0-.992-.137-1.094-.274-.137-.238.684-13.207.855-13.719.205-.478.65 4.027.89 8.703m19.803-18.531c-.137.34-.24 8.463-.24 18.087 0 16.961.035 17.541.684 17.917.821.41 4.686.478 5.336.068.342-.239.444-4.13.342-18.36l-.069-18.088-2.94-.102c-2.395-.068-2.942 0-3.113.478m19.768-.308c-.137.137-.24 8.327-.24 18.224 0 20.306-.341 18.43 3.045 18.43 3.249.033 3.044.613 3.044-8.43 0-4.949.137-8.088.376-8.225.171-.102.342 0 .342.239 0 1.263 4.857 15.255 5.472 15.8.753.65 3.318.854 4.139.342.342-.239.444-4.13.342-18.36l-.069-18.088h-5.746l-.17 8.259c-.24 9.453.068 9.487-3.25-.717-1.197-3.72-2.36-6.996-2.565-7.269-.41-.478-4.31-.648-4.72-.205m30.508 0c-.137.137-.24 8.327-.24 18.224 0 16.108.07 18.02.582 18.224.855.342 11.39.24 11.902-.068.342-.239.445-1.126.376-3.14l-.102-2.832-3.25-.205-3.214-.17-.103-5.29-.102-5.29h2.667c1.847.034 2.77-.137 3.078-.478.24-.307.377-1.501.308-3.14l-.102-2.627-2.873-.205-2.873-.17-.103-3.277-.102-3.31 3.317-.103 3.352-.102v-6.109l-6.122-.102c-3.386-.034-6.26.034-6.396.17m25.856 0c-.136.137-.239 8.362-.239 18.259v18.053l.923.205c.513.136 2.84.17 5.2.068 5.198-.205 6.805-.922 8.344-3.788l.992-1.775v-12.866c0-11.944-.068-13.002-.718-14.3-1.608-3.31-3.454-4.094-9.645-4.094-2.53 0-4.72.102-4.857.238m8.14 5.597c.548.41.616 1.468.513 12.627l-.102 12.184-1.334.102-1.334.103v-12.491c0-6.894.103-12.627.24-12.764.376-.375 1.333-.273 2.017.24"/></g></svg>