<svg xmlns="http://www.w3.org/2000/svg" viewBox="0 0 350 100" class="img-logo">

<g fill="none">
<path class="logo-colour-1" fill="#295bbe" d="M14.76 31q2.268 0 3.864 1.596t1.596 3.78v20.328q0 .672-.084 1.47a3.8 3.8 0 0 1-.462 1.47q-.378.672-1.134 1.176t-2.016.672q2.604.42 3.15 1.806t.546 2.73v26.124h-6.636V64.516H9.636v27.636H3V31zm-1.176 27.468V36.964H9.636v21.504zM6.696 34.612h7.308q1.428 0 1.974.63t.546 2.058v19.32q0 1.68-.84 3.066t-3.528 1.386h-5.46zm10.668 55.02V66.364a7 7 0 0 0-.672-3.024q-.672-1.428-2.604-1.848 1.932-.42 2.604-1.848t.672-3.024V37.3q0-1.932-.714-2.73t-2.646-.798H5.856v55.86h.84v-27.72h5.46q2.688 0 3.528 1.386t.84 3.066v23.268zm13.02 2.52v-18.9q-2.268-.252-3.822-1.764t-1.554-3.948V31h6.636v36.288h4.2V31h6.636v36.54q0 2.436-1.554 3.948t-3.822 1.764v18.9zm3.78-2.52V70.9h1.848q1.932 0 2.73-.924t.798-2.856v-33.6h-.84v33.6q0 2.94-2.688 2.94h-4.62q-2.688 0-2.688-2.856V33.52h-.84v33.684q0 1.932.798 2.814t2.73.882h1.932v18.732zM47.268 36.46q0-2.268 1.596-3.864T52.728 31h6.3q2.268 0 3.864 1.596t1.596 3.864v55.692h-6.636V64.516h-3.948v27.636h-6.636zm10.584.504h-3.948v21.504h3.948zm3.696 52.668v-52.5q0-1.932-.714-2.73t-2.646-.798h-4.704q-1.932 0-2.646.756t-.714 2.688v52.584h.84v-27.72h9.744v27.72zM50.964 37.048q0-1.428.504-2.016t1.932-.588h4.872q1.428 0 1.932.63t.504 2.058v23.94h-9.744zM75.408 31l6.216 30.744V31h6.552v61.152h-5.88L76.08 60.568v31.584h-6.552V31zm-2.184 58.632V37.3L84.48 89.632h.84V33.604h-.84v52.332L73.224 33.604h-.84v56.028zM108.252 31v27.468h1.344L113.544 31h6.552l-4.536 27.804q1.26.168 1.932.672t.966 1.176a4.1 4.1 0 0 1 .336 1.428q.042.756.042 1.428v28.644H112.2V64.516h-3.948v27.636h-6.636V31zm-3.78 2.52v56.112h.84v-27.72h8.064q1.68 0 1.68 1.764v25.956h.84V63.676q0-2.604-2.52-2.604h-.756l4.452-27.636h-.924l-4.452 27.636h-6.384V33.52zM129.504 31l6.216 30.744V31h6.552v61.152h-5.88l-6.216-31.584v31.584h-6.552V31zm-2.184 58.632V37.3l11.256 52.332h.84V33.604h-.84v52.332L127.32 33.604h-.84v56.028zm19.992-53.172q0-2.268 1.596-3.864T152.772 31h6.3q2.268 0 3.864 1.596t1.596 3.864v55.692h-6.636V64.516h-3.948v27.636h-6.636zm10.584.504h-3.948v21.504h3.948zm3.696 52.668v-52.5q0-1.932-.714-2.73t-2.646-.798h-4.704q-1.932 0-2.646.756t-.714 2.688v52.584h.84v-27.72h9.744v27.72zm-10.584-52.584q0-1.428.504-2.016t1.932-.588h4.872q1.428 0 1.932.63t.504 2.058v23.94h-9.744zM186.96 86.44q0 2.688-1.512 4.2t-4.2 1.512h-5.88q-2.604 0-4.2-1.512t-1.596-4.2V36.712q0-2.52 1.596-4.116t4.2-1.596h5.88q2.688 0 4.2 1.596t1.512 4.116v14.112h-6.636v-13.86h-4.116v49.224h4.116V64.516h-1.596v-6.048h8.232zm-3.108-38.136V37.132q0-1.932-.714-2.73t-2.646-.798h-4.704q-1.932 0-2.646.756t-.714 2.688v49.14q0 1.932.714 2.688t2.646.756h4.704q1.932 0 2.646-.798t.714-2.73V61.072h-2.604v.84h1.764v24.192q0 1.428-.546 2.058t-1.974.63h-4.704q-1.428 0-1.974-.588t-.546-2.016v-49.14q0-1.428.546-2.016t1.974-.588h4.704q1.428 0 1.974.63t.546 2.058v11.172zm25.284 38.136q0 2.688-1.512 4.2t-4.2 1.512h-5.88q-2.604 0-4.2-1.512t-1.596-4.2V36.712q0-2.52 1.596-4.116t4.2-1.596h5.88q2.688 0 4.2 1.596t1.512 4.116v14.112H202.5v-13.86h-4.116v49.224h4.116V64.516h-1.596v-6.048h8.232zm-3.108-38.136V37.132q0-1.932-.714-2.73t-2.646-.798h-4.704q-1.932 0-2.646.756t-.714 2.688v49.14q0 1.932.714 2.688t2.646.756h4.704q1.932 0 2.646-.798t.714-2.73V61.072h-2.604v.84h1.764v24.192q0 1.428-.546 2.058t-1.974.63h-4.704q-1.428 0-1.974-.588t-.546-2.016v-49.14q0-1.428.546-2.016t1.974-.588h4.704q1.428 0 1.974.63t.546 2.058v11.172zm17.892 24.024q0-.756-.168-1.26t-.588-1.176l-8.736-14.616q-.672-1.176-.798-2.016a12.5 12.5 0 0 1-.126-1.848V36.124q0-2.688 1.512-3.906t4.2-1.218h5.628q2.688 0 4.2 1.218t1.512 3.906v14.7h-6.636v-13.86h-3.78v13.86q0 .756.21 1.302t.546 1.134l8.232 13.776q.504.756.756 1.344t.42 1.176.21 1.344.042 1.848v14.28q0 2.688-1.512 3.906t-4.2 1.218h-5.628q-2.688 0-4.2-1.218t-1.512-3.906v-14.7h6.636v13.86h3.78zm3.78-24.024V37.3q0-1.932-.714-2.73t-2.646-.798h-4.62q-1.932 0-2.646.756t-.714 2.688v13.356q0 .924.126 1.89t.546 1.638l8.736 14.532q.672 1.092.924 1.974t.252 2.142v13.104q0 1.428-.546 2.058t-1.974.63h-4.62q-1.428 0-1.974-.63t-.546-2.058V74.848h-.84v11.004q0 1.932.714 2.73t2.646.798h4.62q1.932 0 2.646-.798t.714-2.73V72.748q0-1.428-.294-2.436t-1.05-2.184l-8.484-14.196a4.5 4.5 0 0 1-.588-1.512 9.4 9.4 0 0 1-.168-1.848V37.216q0-1.428.546-2.016t1.974-.588h4.62q1.428 0 1.974.63t.546 2.058v11.004z"/>

<path class="logo-colour-2" fill="#c9cacf" d="m254.927 87.224-4.814-30.081V92h-6.557V31h7.719l5.395 33.433L262.064 31h7.72v61h-6.558V57.143l-4.813 30.08zm-7.72 2.262V34.352h.748l7.968 43.99h1.494l7.884-44.074h.747v55.218h.83V33.43h-2.24l-7.885 44.074h-.166l-7.968-43.99h-2.241v55.972zM291.613 31v55.302q0 2.682-1.536 4.19Q288.541 92 285.968 92h-5.561q-2.655 0-4.15-1.508-1.494-1.508-1.494-4.19V31h6.557v55.05h3.735V31zm-2.74 2.514h-.83v52.202q0 1.425-.539 2.053-.54.627-1.95.628h-4.648q-1.41 0-1.95-.587-.54-.585-.54-2.01V33.513h-.83v52.285q0 1.928.705 2.682t2.615.754h4.648q1.909 0 2.614-.796.706-.796.706-2.723zm17.596 38.711q0-.753-.166-1.257-.166-.502-.58-1.173l-8.633-14.58q-.663-1.172-.788-2.01a12.6 12.6 0 0 1-.125-1.844v-15.25q0-2.68 1.494-3.896Q299.165 31 301.82 31h5.561q2.655 0 4.15 1.215 1.494 1.215 1.494 3.896v14.664h-6.557V36.949h-3.735v13.826q0 .753.208 1.298.207.545.54 1.132l8.133 13.741q.498.754.747 1.341t.415 1.173.207 1.34q.042.756.042 1.844V86.89q0 2.68-1.494 3.896Q310.036 92 307.381 92h-5.56q-2.657 0-4.15-1.215-1.495-1.215-1.495-3.896V72.225h6.557v13.826h3.735zm3.735-23.964V37.284q0-1.926-.705-2.723t-2.615-.796h-4.565q-1.908 0-2.614.754-.706.755-.706 2.682v13.322q0 .922.125 1.886t.54 1.634l8.631 14.495q.664 1.09.913 1.97.25.879.25 2.136v13.072q0 1.425-.54 2.053t-1.95.628H302.4q-1.41 0-1.95-.628-.54-.63-.54-2.053V74.739h-.83v10.977q0 1.926.706 2.723t2.614.796h4.565q1.909 0 2.615-.796.705-.796.705-2.723V72.644q0-1.425-.29-2.43-.291-1.005-1.038-2.178l-8.383-14.161a4.5 4.5 0 0 1-.58-1.508 9.5 9.5 0 0 1-.167-1.844V37.201q0-1.425.54-2.011t1.95-.587h4.565q1.41 0 1.95.628.54.63.54 2.053v10.977zM317.84 31h6.64v61h-6.64zm3.735 2.514h-.83v55.972h.83zm24.982 52.788q0 2.682-1.494 4.19Q343.567 92 340.912 92h-5.56q-2.657 0-4.15-1.508-1.495-1.508-1.495-4.19V36.698q0-2.514 1.494-4.106t4.15-1.592h5.561q2.655 0 4.15 1.592 1.494 1.592 1.494 4.106v14.077h-6.557V36.949h-3.735v49.102H340V72.225h6.557zm-2.739-38.041V37.117q0-1.928-.705-2.723-.705-.796-2.615-.796h-4.648q-1.909-.001-2.614.754-.706.753-.706 2.681v49.018q0 1.927.706 2.681t2.614.754h4.648q1.909 0 2.615-.796.705-.795.705-2.723V74.739h-.83v11.228q0 1.425-.54 2.053t-1.95.628h-4.648q-1.41 0-1.95-.586-.54-.587-.54-2.011V37.033q0-1.425.54-2.011t1.95-.587h4.648q1.41 0 1.95.629.54.628.54 2.053V48.26zM6.97 0q.765 0 1.304.548.54.548.539 1.298v6.98q0 .232-.029.506-.027.273-.155.519a1.14 1.14 0 0 1-.383.418q-.255.174-.68.231.878.144 1.063.62.183.476.184.938V21h-2.24v-9.49H5.24V21H3V0zm-.397 9.433V2.048H5.24v7.385zM12.754 0v9.433h.454L14.54 0h2.211l-1.53 9.548q.425.058.651.23t.326.405q.1.23.114.49t.014.49V21h-2.24v-9.49h-1.333V21h-2.24V0zm9.074 19.356L20.183 9v12h-2.24V0h2.637l1.843 11.51L24.267 0h2.637v21h-2.24V9l-1.645 10.356zm12.987-5.164q0-.26-.057-.432a2 2 0 0 0-.198-.404l-2.95-5.02q-.225-.404-.269-.692a4.4 4.4 0 0 1-.042-.634V1.76q0-.924.51-1.342T33.227 0h1.9q.907 0 1.417.418.51.419.51 1.342v5.048h-2.24v-4.76H33.54v4.76q0 .26.07.447.072.188.185.39l2.779 4.73q.17.26.255.462.085.201.142.403t.07.462q.015.26.015.635v4.903q0 .924-.51 1.342T35.126 21h-1.9q-.908 0-1.418-.418-.51-.419-.51-1.342v-5.048h2.24v4.76h1.276zm7.344 4.76V2.048h-1.305v16.904zm2.212.086q0 .924-.525 1.443T42.442 21h-1.9q-.878 0-1.403-.52-.525-.518-.525-1.442V1.962q0-.866.525-1.414T40.543 0h1.9q.878 0 1.403.548t.525 1.414zM51.828 0v19.038q0 .924-.525 1.443T49.9 21H48q-.908 0-1.418-.52-.51-.518-.51-1.442V0h2.24v18.952h1.276V0zm3.686 0 2.098 10.558V0h2.212v21H57.84l-2.098-10.846V21h-2.212V0zm9.584 2.048h-1.332v16.904h1.332zm2.24 17.106q0 .75-.538 1.298a1.73 1.73 0 0 1-1.276.548h-3.998V0h3.998q.736 0 1.276.548.538.548.538 1.327zM74.768 0v18.952h1.275V0h2.24v19.038q0 .924-.51 1.443T76.355 21H74.74q-.312 0-.624-.159a1 1 0 0 1-.453-.447 1 1 0 0 1-.454.447 1.4 1.4 0 0 1-.624.159h-1.616q-.908 0-1.418-.52-.51-.518-.51-1.442V0h2.24v18.952h1.276V0zm8.761 18.952V2.048h-1.304v16.904zm2.212.086q0 .924-.525 1.443-.524.519-1.403.519h-1.9q-.879 0-1.404-.52-.524-.518-.524-1.442V1.962q0-.866.524-1.414Q81.034 0 81.913 0h1.9q.88 0 1.403.548.525.548.525 1.414zM91.412 0q.765 0 1.304.548.54.548.54 1.298v6.98q0 .232-.03.506-.027.273-.155.519a1.14 1.14 0 0 1-.383.418q-.255.174-.68.231.879.144 1.063.62t.184.938V21h-2.24v-9.49h-1.333V21h-2.24V0zm-.397 9.433V2.048h-1.333v7.385zM97.197 0v9.433h.453L98.983 0h2.212l-1.531 9.548q.424.058.652.23.226.173.326.405.1.23.113.49.015.26.014.49V21h-2.24v-9.49h-1.332V21h-2.24V0zm8.563 14.192q0-.26-.057-.432a2 2 0 0 0-.198-.404l-2.95-5.02q-.225-.404-.269-.692a4.4 4.4 0 0 1-.042-.634V1.76q0-.924.51-1.342T104.172 0h1.9q.907 0 1.418.418.51.419.51 1.342v5.048h-2.24v-4.76h-1.276v4.76q0 .26.07.447.072.188.185.39l2.779 4.73q.17.26.255.462.085.201.142.403t.07.462q.015.26.015.635v4.903q0 .924-.51 1.342t-1.418.418h-1.9q-.907 0-1.418-.418-.51-.419-.51-1.342v-5.048h2.24v4.76h1.276z"/>

<g class="logo-colour-3" fill="none" stroke="#295bbe" stroke-width="2" stroke-linecap="square">
<path d="M346.5 96.5H3.5M346.5 99.5H3.5"/>
</g>

</g>
</svg>